<?xml version="1.0" encoding="UTF-8" standalone="no"?>
<svg
   version="1.0"
   width="1280.000000pt"
   height="1280.000000pt"
   viewBox="0 0 1280.000000 1280.000000"
   preserveAspectRatio="xMidYMid meet"
   id="svg1"
   sodipodi:docname="mcmax.svg"
   xml:space="preserve"
   inkscape:version="1.4 (e7c3feb100, 2024-10-09)"
   inkscape:export-filename="mcmax.png"
   inkscape:export-xdpi="10.8"
   inkscape:export-ydpi="10.8"
   xmlns:inkscape="http://www.inkscape.org/namespaces/inkscape"
   xmlns:sodipodi="http://sodipodi.sourceforge.net/DTD/sodipodi-0.dtd"
   xmlns="http://www.w3.org/2000/svg"
   xmlns:svg="http://www.w3.org/2000/svg"><defs
     id="defs1" /><sodipodi:namedview
     id="namedview1"
     pagecolor="#ffffff"
     bordercolor="#000000"
     borderopacity="0.25"
     inkscape:showpageshadow="2"
     inkscape:pageopacity="0.0"
     inkscape:pagecheckerboard="0"
     inkscape:deskcolor="#d1d1d1"
     inkscape:document-units="pt"
     showgrid="false"
     inkscape:zoom="0.34802912"
     inkscape:cx="686.72415"
     inkscape:cy="905.09668"
     inkscape:window-width="1920"
     inkscape:window-height="1051"
     inkscape:window-x="0"
     inkscape:window-y="0"
     inkscape:window-maximized="0"
     inkscape:current-layer="svg1" /><metadata
     id="metadata1">
Created by potrace 1.15, written by Peter Selinger 2001-2017
</metadata><rect
     style="fill:#ffffff;stroke-width:11.3386"
     id="rect1"
     width="1280"
     height="1280"
     x="0"
     y="0" /><path
     id="path1"
     style="fill:#000000;fill-opacity:1;stroke:none;stroke-width:0.0956222"
     d="m 447.41481,28.016637 c -9.75348,0 -21.61141,5.928405 -27.06189,13.67382 -6.78919,9.370995 -6.50241,6.598786 -6.78928,59.669213 l -0.28716,48.09788 h -14.2467 -14.24811 l -0.28715,-48.09788 -0.28714,-48.002627 -3.15443,-6.406888 C 375.60248,35.95358 365.17908,28.972768 353.22627,28.399033 c -3.44239,-0.19124 -7.93702,0.09619 -9.94509,0.574296 -10.04035,2.581803 -18.83715,10.039701 -23.42702,19.888808 l -2.58153,5.450195 -0.28714,49.246468 -0.28716,49.34032 -6.40688,1.14719 c -26.58302,5.06799 -56.79924,18.8377 -80.80046,36.91033 -37.5796,28.20861 -67.03214,74.96825 -75.44691,119.33704 l -1.14719,6.40688 -49.34032,0.28716 -49.246468,0.28714 -6.406895,3.15442 c -25.818047,12.71779 -26.390842,48.09937 -0.955289,60.6259 l 6.406887,3.15443 48.002635,0.28714 48.09788,0.28716 v 14.24811 14.34335 h -46.09065 c -51.157987,0 -51.444387,0.0952 -60.719759,6.215 -21.801904,14.43897 -18.168066,47.52423 6.406888,59.19016 4.20739,1.91244 5.641533,2.00752 52.400891,2.29438 l 48.00263,0.28714 v 14.24812 14.24811 l -48.00263,0.28715 -48.097885,0.28574 -5.451598,2.58293 c -6.980432,3.25115 -13.577067,9.94343 -16.828235,16.82824 -2.103691,4.58988 -2.581893,6.78937 -2.48627,13.57856 0,6.88481 0.381836,8.98962 2.676774,14.05762 3.346785,7.26729 9.849008,13.76925 17.594423,17.30727 l 5.450203,2.58153 47.524978,0.28714 47.62024,0.28716 v 13.76906 13.76906 l -47.04735,0.28716 c -46.568101,0.28686 -47.236526,0.38257 -52.591379,2.48627 -7.649791,3.05991 -14.343823,9.46661 -18.168718,17.21202 -2.868674,5.73735 -3.155825,7.17234 -3.155825,14.53527 0.09562,6.69357 0.479233,9.08431 2.582924,13.57856 3.346785,7.17168 8.988508,13.19534 15.777701,16.63775 l 5.545447,2.77342 48.48027,0.28575 48.57693,0.28714 v 14.24811 14.24811 l -47.52499,0.28714 -47.620228,0.28575 -6.023095,2.77343 c -11.665935,5.35485 -20.2726,18.45502 -20.2726,30.50345 0,4.78111 1.912823,12.33538 4.207754,16.82963 2.677434,4.97237 9.752459,11.47506 15.681046,14.24811 l 5.451598,2.58154 48.097885,0.28714 48.00263,0.28715 v 14.24671 14.34336 h -45.613 c -27.634879,0 -47.428064,0.4782 -50.009867,1.05194 -10.614088,2.39055 -20.558909,11.9528 -24.001317,22.94937 -2.294939,7.45855 -2.29531,12.52654 0.09525,20.0807 2.96429,9.46662 9.467552,16.73466 19.125411,21.32455 4.20739,1.91244 5.641533,2.0075 52.400893,2.29437 l 48.00263,0.28715 v 14.24811 14.24671 l -48.00263,0.28719 -48.097887,0.28711 -5.354944,2.48629 c -7.554167,3.53803 -12.71834,8.60528 -16.351988,15.9682 -2.868673,5.73734 -3.155825,7.26795 -3.155825,14.5352 0.09562,6.69359 0.479233,9.08435 2.582925,13.57863 3.538032,7.55416 9.370721,13.57799 16.924888,17.30728 l 6.310241,3.06052 49.24647,0.28577 49.34032,0.28713 1.14719,6.40689 c 5.06798,26.67867 18.74273,56.70388 37.10223,81.08758 28.01737,37.2928 74.8716,66.8407 119.24038,75.1598 l 6.40689,1.2424 v 45.4211 c 0,28.6868 0.38259,47.6201 1.05194,51.2538 2.00807,11.0922 9.17948,20.0809 19.79356,25.0532 4.58988,2.1993 6.69375,2.5815 13.57857,2.5815 6.69356,-0.096 8.98943,-0.4778 13.38807,-2.5815 7.36293,-3.4424 12.52569,-8.224 16.35059,-15.3 l 3.25107,-6.0245 0.28714,-48.5756 0.28715,-48.4802 h 14.24811 14.34335 v 45.6116 c 0,50.0105 0.19023,51.9225 5.6407,60.3373 5.5461,8.7017 17.97711,15.4906 28.30432,15.4906 5.64173,0 15.49157,-3.2506 19.89021,-6.5974 4.58987,-3.4424 8.98814,-8.9881 11.56994,-14.4387 1.91245,-4.2073 2.00751,-5.6414 2.29438,-52.4007 l 0.28714,-48.0027 h 14.24811 14.24811 l 0.28715,48.0027 0.28574,48.0978 2.58293,5.4502 c 3.25116,6.9804 9.37044,13.1001 16.63775,16.5425 4.87673,2.3905 6.78862,2.7734 13.76906,2.7734 6.88481,0.096 8.98897,-0.3822 13.86571,-2.5815 7.45854,-3.4424 13.96152,-9.9458 17.40392,-17.3087 l 2.67678,-5.8326 0.28714,-47.6202 0.28717,-47.5236 h 14.2467 14.24811 l 0.28715,48.5755 c 0.28687,47.8112 0.28733,48.577 2.39102,52.88 3.4424,7.076 9.27453,12.9081 16.3506,16.3505 5.73733,2.8687 7.26795,3.1558 14.53525,3.1558 7.2673,0 8.89215,-0.3827 14.53387,-3.1558 7.74541,-3.8249 14.15211,-10.5175 17.21202,-18.1673 2.1037,-5.3548 2.19941,-6.025 2.48627,-52.4976 l 0.28715,-47.1411 h 13.86573 13.76906 v 44.6548 c 0,48.2894 0.28667,51.7319 5.06779,59.8598 13.57838,23.045 47.42863,21.994 59.19018,-2.0072 l 3.15582,-6.4069 0.28714,-48.0026 0.28715,-48.0979 h 14.24671 14.34336 v 45.8987 c 0,44.6557 0.0958,45.9946 2.10389,52.3057 1.7212,5.4504 3.06066,7.5531 8.41551,12.8123 5.45048,5.5461 7.17065,6.6944 12.81237,8.4156 7.74541,2.3905 12.81453,2.4857 19.79497,0.4776 9.8491,-2.773 17.78482,-9.9451 22.47032,-19.9855 1.72121,-3.5381 1.81701,-7.3618 2.10388,-51.9217 l 0.28715,-48.0027 h 14.24811 14.24669 l 0.2872,48.0027 0.28711,48.0978 2.58152,5.4502 c 3.2512,6.9804 9.37182,13.1001 16.63914,16.5425 4.87677,2.3905 6.78861,2.7734 13.7691,2.7734 6.88476,0.096 8.98897,-0.3822 13.86567,-2.5815 7.45857,-3.4424 13.96014,-9.9458 17.40252,-17.3087 l 2.67823,-5.8326 0.28571,-49.2451 0.28712,-49.3417 6.40689,-1.1472 c 44.27323,-8.3191 91.12773,-37.867 119.14513,-75.1598 18.3596,-24.3837 32.0343,-54.40891 37.1023,-81.08758 l 1.2424,-6.50213 h 45.4211 c 28.6867,0 47.6201,-0.38257 51.2537,-1.05197 11.0922,-2.00806 20.0809,-9.17945 25.0532,-19.79349 2.1994,-4.58987 2.5816,-6.6938 2.5816,-13.57863 -0.096,-6.69351 -0.4778,-8.98799 -2.5816,-13.3866 -3.6336,-7.74548 -8.5099,-12.81364 -15.8728,-16.44727 l -6.4069,-3.15582 -48.0027,-0.28711 -48.0978,-0.28719 V 880.9689 866.62554 h 45.7068 c 50.2974,0 52.2095,-0.19228 60.3374,-5.83399 6.4066,-4.39864 11.284,-10.90077 13.4833,-17.97683 2.3905,-7.64978 2.3905,-12.6214 0,-20.27119 -2.9643,-9.46662 -9.4662,-16.73467 -19.1241,-21.32455 -4.2074,-1.91244 -5.6419,-2.0075 -52.3056,-2.29437 l -48.0978,-0.28715 v -14.24811 -14.24671 l 48.0978,-0.28715 48.0027,-0.28714 5.4502,-2.58154 c 6.9803,-3.25116 13.1,-9.37183 16.5424,-16.63914 2.3906,-4.87673 2.7735,-6.78863 2.7735,-13.76906 0.096,-6.88481 -0.3822,-8.98897 -2.5815,-13.86571 -3.4424,-7.45854 -9.9458,-13.96012 -17.3087,-17.40254 l -5.8326,-2.67817 -47.5251,-0.28575 -47.6187,-0.28714 v -14.24811 -14.24811 l 48.5754,-0.28714 c 47.8113,-0.28688 48.5769,-0.28594 52.88,-2.38964 7.0761,-3.4424 12.9082,-9.27592 16.3506,-16.35198 2.8687,-5.73734 3.1558,-7.26656 3.1558,-14.53386 0,-7.26731 -0.3828,-8.89355 -3.1558,-14.53527 -3.8249,-7.74541 -10.5175,-14.15211 -18.1674,-17.21202 -5.3548,-2.1037 -6.025,-2.19941 -52.4975,-2.48627 l -47.1411,-0.28716 v -13.86431 -13.77047 h 44.7501 c 48.1936,0 51.6366,-0.28667 59.7645,-5.06779 23.045,-13.57839 21.994,-47.42863 -2.0072,-59.19018 l -6.4069,-3.15582 -48.0027,-0.28574 -48.0978,-0.28715 v -14.24811 -14.34336 h 45.8987 c 44.6557,0 45.9945,-0.0958 52.3057,-2.10389 5.4504,-1.7212 7.5531,-3.05925 12.8123,-8.4141 5.5461,-5.45048 6.6942,-7.17206 8.4155,-12.81378 2.3906,-7.64979 2.4854,-12.527 0.5729,-19.60306 -2.8687,-11.0922 -13.7696,-21.60973 -24.3837,-23.90466 -3.1555,-0.66936 -21.2281,-1.05195 -50.2018,-1.05195 h -45.4196 v -14.34335 -14.24811 l 48.0978,-0.28716 48.0027,-0.28714 5.4502,-2.58154 c 6.9803,-3.25116 13.1,-9.37042 16.5424,-16.63773 2.3906,-4.87674 2.7735,-6.79003 2.7735,-13.77046 0.096,-6.88481 -0.3822,-8.98757 -2.5815,-13.86431 -3.4424,-7.45855 -9.9458,-13.96153 -17.3087,-17.40394 l -5.8326,-2.67677 -49.2451,-0.28714 -49.3417,-0.28716 -1.1472,-6.40688 c -5.068,-26.58302 -18.8377,-56.79924 -36.9103,-80.80046 -28.2087,-37.5796 -74.9683,-67.03214 -119.33713,-75.44691 l -6.40689,-1.14719 -0.28712,-49.34032 -0.28571,-49.246468 -3.15583,-6.406887 C 946.85026,22.087398 911.47001,21.514596 898.9435,46.950155 l -3.15583,6.406888 -0.28711,48.002627 -0.2872,48.09788 h -14.24669 -14.34336 v -46.1859 c 0,-38.057713 -0.28687,-46.951152 -1.43433,-50.776048 -5.35486,-17.690144 -23.9057,-28.112613 -41.21336,-23.044625 -10.04034,2.96429 -18.07337,9.84957 -22.75888,19.603059 -1.91243,4.207384 -2.00749,5.641906 -2.29437,52.305634 l -0.28714,48.09788 H 784.38711 770.1404 l -0.28715,-48.09788 -0.28714,-48.002627 -2.58153,-5.451598 c -3.25117,-6.980433 -9.37184,-13.100085 -16.63914,-16.542486 -4.87674,-2.390563 -6.78863,-2.772026 -13.76906,-2.772026 -6.88481,-0.09562 -8.98897,0.382214 -13.86572,2.581529 -7.45854,3.442401 -13.96012,9.944351 -17.40253,17.307278 l -2.67817,5.832592 -0.28575,47.524988 -0.28714,47.62023 h -14.05622 -14.05761 v -47.14259 c 0,-46.759352 1.9e-4,-47.045655 -2.19913,-52.496132 -3.05991,-7.64979 -9.46661,-14.343829 -17.21202,-18.168725 -5.73735,-2.868673 -7.17094,-3.155818 -14.53387,-3.155818 -6.69356,0.09562 -9.08431,0.479233 -13.57856,2.582925 -7.17169,3.346784 -13.19674,8.988508 -16.63915,15.777694 l -2.77201,5.545447 -0.28715,48.480279 -0.28715,48.57692 h -14.24811 -14.34336 v -44.75156 c 0,-48.193691 -0.28667,-51.636561 -5.0678,-59.764463 -13.57838,-23.044998 -47.42862,-21.992598 -59.19017,2.008628 l -3.15583,6.406888 -0.28574,48.002627 -0.28715,48.09788 H 495.60793 481.26457 V 103.7493 c 0,-50.393008 -0.19189,-51.922214 -5.92924,-60.432611 -6.02421,-8.988508 -17.5933,-15.300052 -27.92052,-15.300052 z"
     sodipodi:nodetypes="scccccccccccccccccccccccccccsccccccccccccccccccccccccccccccccscccccccsccccccccccccccccccccccsccccccccccscscccccccccccccccccccccsccccccscccccccscccccccccccccccccccccccsccccccccccscccccccccccccccccccccccsccccccscccccccscccccscccccccccccccccccccsccccccscccccccccccccccccccsccccccccccscccccccscs" /><path
     id="path10"
     style="fill:#65ea00;fill-opacity:1;stroke:none;stroke-width:11.0159;stroke-dasharray:none"
     d="M 640.58645,431.17395 A 276.20859,276.20859 0 0 0 364.37801,707.38238 276.20859,276.20859 0 0 0 640.58645,983.59077 276.20859,276.20859 0 0 0 916.7949,707.38238 276.20859,276.20859 0 0 0 640.58645,431.17395 Z m 0,90.11423 a 186.09418,186.09418 0 0 1 186.09421,186.0942 186.09418,186.09418 0 0 1 -186.09421,186.0942 186.09418,186.09418 0 0 1 -186.09419,-186.0942 186.09418,186.09418 0 0 1 186.09419,-186.0942 z" /><path
     style="fill:#ffffff;stroke:none;stroke-width:11.0159;stroke-dasharray:none"
     d="m 276.52836,1065.93 c -22.79472,-32.5439 22.12389,-105.5607 64.93912,-105.5607 35.81912,0 25.24467,73.1943 -14.68178,101.6243 -20.81512,14.8217 -41.49829,16.4417 -50.25734,3.9364 z m 714.65494,-54.3784 c -24.07378,-11.209 -45.7312,-36.65579 -45.7312,-53.73288 0,-39.8782 83.7933,-26.93475 110.6366,17.08991 24.2309,39.74027 -13.0499,60.78747 -64.9054,36.64297 z M 857.06768,963.24997 c -10.93758,-3.10141 -27.64087,-9.68837 -37.11842,-14.63756 l -17.23191,-8.99864 19.32607,-3.09039 c 60.55764,-9.6835 47.43432,-49.36759 -47.3761,-143.26231 L 710.794,730.00465 763.90918,757.0844 c 142.8801,72.84462 195.23684,128.8048 168.65279,180.25997 -14.04033,27.17602 -39.81877,36.02183 -75.49429,25.9056 z M 367.37265,951.41755 c -30.24022,-18.43698 -33.31358,-50.28649 -9.4199,-97.6196 16.87177,-33.4228 21.8387,-35.87887 21.8387,-10.79894 0,65.35528 73.12423,39.48895 184.83198,-65.38082 18.50232,-17.36972 30.50463,-26.60968 26.67182,-20.53325 -3.83281,6.07643 -15.46013,24.96861 -25.83847,41.98263 -74.57353,122.2541 -151.01547,181.04694 -198.08413,152.34998 z M 619.475,616.51271 c -25.4308,-108.80983 -22.12271,-226.49009 7.35956,-261.8051 38.97927,-46.69089 96.88557,-9.5728 109.168,69.97699 l 2.92248,18.92799 -15.61357,-15.61358 c -48.58317,-48.58317 -84.69793,23.70516 -97.07073,194.2996 l -1.28207,17.67689 z M 638.37653,310.0013 c -36.32164,-28.57061 -31.68336,-118.57707 6.11059,-118.57707 42.26102,0 61.61281,102.8346 23.21857,123.38257 -12.37608,6.62347 -15.43721,6.12192 -29.32916,-4.8055 z"
     id="path8"
     sodipodi:nodetypes="sssssssssscsscssssssssssssscsscsssss"
     inkscape:export-filename="mcmax.png"
     inkscape:export-xdpi="10.8"
     inkscape:export-ydpi="10.8" /></svg>
