<svg version="1.1" xmlns="http://www.w3.org/2000/svg" viewBox="0 0 185.54625323683436 146.7860508338963" width="556.6387597105031" height="440.3581525016889">
  <!-- svg-source:excalidraw -->
  
  <defs>
    <style class="style-fonts">
      @font-face {
        font-family: "Virgil";
        src: url("https://excalidraw.com/Virgil.woff2");
      }
      @font-face {
        font-family: "Cascadia";
        src: url("https://excalidraw.com/Cascadia.woff2");
      }
      @font-face {
        font-family: "Assistant";
        src: url("https://app.excalidraw.com//dist/excalidraw-assets/Assistant-Regular.woff2");
      }
    </style>
    
  </defs>
  <g stroke-linecap="round" transform="translate(16.631321096786962 17.19864918415351) rotate(0 76.33335876464845 45.00000762939453)"><path d="M0 0 C31.09 1.69, 66.3 0.75, 152.67 0 M0 0 C60.11 -0.96, 120.43 -1.46, 152.67 0 M152.67 0 C152.61 33.01, 154.44 68.63, 152.67 90 M152.67 0 C154.26 29.52, 154.16 57.42, 152.67 90 M152.67 90 C110.36 88.83, 67.84 91.18, 0 90 M152.67 90 C118.68 90.25, 85.6 91.82, 0 90 M0 90 C-1.5 69.1, -1.75 44.4, 0 0 M0 90 C1.62 63.35, 0.1 39.07, 0 0" stroke="#ffffff" stroke-width="1" fill="none"></path></g><g stroke-linecap="round" transform="translate(10 10) rotate(0 82.77312661841718 51.765984900914674)"><path d="M0 0 C39.66 -0.83, 78.55 -0.64, 165.55 0 M0 0 C62.31 -0.62, 124.48 0.6, 165.55 0 M165.55 0 C166.09 28.94, 165.5 56.05, 165.55 103.53 M165.55 0 C167.22 30.9, 166.27 62.11, 165.55 103.53 M165.55 103.53 C116.28 103.55, 62.29 103.52, 0 103.53 M165.55 103.53 C106.7 103.56, 47.78 102.5, 0 103.53 M0 103.53 C-1.01 81.19, 0.54 57.63, 0 0 M0 103.53 C-1.55 64.48, -0.58 24.96, 0 0" stroke="#ffffff" stroke-width="1" fill="none"></path></g><g stroke-linecap="round"><g transform="translate(82.35222501453487 113.47930112382016) rotate(0 -0.2164817630286251 9.276547761525876)"><path d="M0 0 C0.67 6.12, 0.24 12.44, -0.76 18.55 M0 0 C0.13 6.29, -0.61 11.56, -0.76 18.55" stroke="#ffffff" stroke-width="1" fill="none"></path></g></g><mask></mask><g stroke-linecap="round"><g transform="translate(97.40987632142404 114.47523504478863) rotate(0 0.66668701171875 9)"><path d="M0 0 C1.13 5.24, 1 10.66, 1.33 18 M0 0 C0.25 4.6, 0.67 9.8, 1.33 18" stroke="#ffffff" stroke-width="1" fill="none"></path></g></g><mask></mask><g stroke-linecap="round"><g transform="translate(79.18523669371419 136.38477460614786) rotate(0 11.11941821520847 0.17572320984905332)"><path d="M0 0 C6.72 0.4, 12.77 0.68, 22.24 -0.05 M0 0 C8.52 0.27, 17.69 0.11, 22.24 -0.05" stroke="#ffffff" stroke-width="1" fill="none"></path></g></g><mask></mask><g stroke-linecap="round" transform="translate(78.98458021814241 28.672312669449298) rotate(0 6.153946972362064 28.773878379124994)"><path d="M3.08 0 C5.92 -0.15, 7.24 0.71, 9.23 0 C11.09 1.18, 10.14 0.55, 12.31 3.08 C12.67 21.9, 12.55 33.08, 12.31 54.47 C10.86 55.32, 9.2 58.05, 9.23 57.55 C7.61 58.13, 4.51 58.19, 3.08 57.55 C-1.02 56.49, -2.35 58.45, 0 54.47 C1.68 42.61, 3.06 34.88, 0 3.08 C-1.23 -1.28, 0.4 2.38, 3.08 0" stroke="none" stroke-width="0" fill="#69db7c"></path><path d="M3.08 0 C5.23 -0.25, 7.06 -0.22, 9.23 0 M3.08 0 C4.58 0.09, 6.4 0.08, 9.23 0 M9.23 0 C11.15 -0.3, 11.7 0.4, 12.31 3.08 M9.23 0 C11.32 0.83, 11.55 1.25, 12.31 3.08 M12.31 3.08 C12.59 21.41, 12.16 40.92, 12.31 54.47 M12.31 3.08 C11.84 17.39, 11.98 32.62, 12.31 54.47 M12.31 54.47 C12.65 56.86, 11.59 58.06, 9.23 57.55 M12.31 54.47 C11.77 56.09, 12.03 57.25, 9.23 57.55 M9.23 57.55 C7.6 57.26, 6.08 57.56, 3.08 57.55 M9.23 57.55 C7.25 57.71, 5.17 57.52, 3.08 57.55 M3.08 57.55 C0.19 57.72, 0.38 55.93, 0 54.47 M3.08 57.55 C1.25 56.66, 0.21 55.87, 0 54.47 M0 54.47 C0.54 35.21, -0.77 14.16, 0 3.08 M0 54.47 C0.08 39.91, -0.33 24.32, 0 3.08 M0 3.08 C0.19 1.58, 0.72 0.38, 3.08 0 M0 3.08 C1.11 1.24, 1.47 -0.43, 3.08 0" stroke="#343a40" stroke-width="2" fill="none"></path></g><g stroke-linecap="round" transform="translate(96.78113944783064 28.672312669449298) rotate(0 5.654978093152678 22.78625944227329)"><path d="M2.83 0 C3.39 0.6, 5.18 0.35, 8.48 0 C8.2 -0.48, 11.75 0.51, 11.31 2.83 C11.76 14.16, 9.96 29.39, 11.31 42.75 C9.23 45.13, 12.24 46.79, 8.48 45.57 C6.42 46.18, 4.03 45.33, 2.83 45.57 C-1.4 47.5, -2.48 42.64, 0 42.75 C2.32 35.34, -1.46 22.72, 0 2.83 C-0.63 3.33, -1.16 -0.12, 2.83 0" stroke="none" stroke-width="0" fill="#ffd43b"></path><path d="M2.83 0 C4.79 -0.17, 6.26 0.02, 8.48 0 M2.83 0 C4.45 0.05, 5.83 -0.06, 8.48 0 M8.48 0 C9.76 -0.62, 11.34 1.67, 11.31 2.83 M8.48 0 C9.61 0.23, 11.99 1.61, 11.31 2.83 M11.31 2.83 C11.04 14.31, 11.18 23.68, 11.31 42.75 M11.31 2.83 C10.91 14.94, 11.33 26.59, 11.31 42.75 M11.31 42.75 C11.62 45.14, 9.9 45.19, 8.48 45.57 M11.31 42.75 C12.06 44.33, 9.93 45.16, 8.48 45.57 M8.48 45.57 C6.49 45.54, 4.41 45.45, 2.83 45.57 M8.48 45.57 C6.27 45.56, 4.2 45.62, 2.83 45.57 M2.83 45.57 C1.32 44.98, 0.19 43.86, 0 42.75 M2.83 45.57 C1.16 44.92, 1.03 45.68, 0 42.75 M0 42.75 C-0.69 27.65, -0.25 13.92, 0 2.83 M0 42.75 C-0.24 28.14, -0.03 14.44, 0 2.83 M0 2.83 C-0.3 1.33, 1.91 0.18, 2.83 0 M0 2.83 C0.44 0.51, 2.03 -0.2, 2.83 0" stroke="#343a40" stroke-width="2" fill="none"></path></g><g stroke-linecap="round" transform="translate(61.021670111961214 28.672312669449298) rotate(0 6.320275007872439 34.42886408593853)"><path d="M3.16 0 C4.83 0.31, 5.93 -0.22, 9.48 0 C12.02 -0.44, 13.88 1.52, 12.64 3.16 C11.31 26.84, 10.67 53.41, 12.64 65.7 C14.52 69.02, 12.68 71.02, 9.48 68.86 C6.5 68.59, 4.07 69.53, 3.16 68.86 C-1.42 66.87, -2.03 68.97, 0 65.7 C-2.02 47.85, -1.42 37.01, 0 3.16 C-2.1 0.93, 1.21 -1.19, 3.16 0" stroke="none" stroke-width="0" fill="#4dabf7"></path><path d="M3.16 0 C4.44 0.02, 5.86 -0.18, 9.48 0 M3.16 0 C5.36 -0.06, 7.5 -0.11, 9.48 0 M9.48 0 C11.62 0.72, 11.98 1.25, 12.64 3.16 M9.48 0 C12.27 0.67, 12.24 1.21, 12.64 3.16 M12.64 3.16 C12.39 20.7, 12.5 38.1, 12.64 65.7 M12.64 3.16 C12.66 18.36, 12.64 33.48, 12.64 65.7 M12.64 65.7 C12.17 67.43, 12.24 68.6, 9.48 68.86 M12.64 65.7 C12.21 67.39, 12.33 68.79, 9.48 68.86 M9.48 68.86 C8.27 68.75, 7.15 68.82, 3.16 68.86 M9.48 68.86 C6.85 68.88, 4.55 68.75, 3.16 68.86 M3.16 68.86 C1.25 68.08, 0.19 67.23, 0 65.7 M3.16 68.86 C2.08 69.9, 0.82 68.69, 0 65.7 M0 65.7 C0.07 43.01, 0.75 19.24, 0 3.16 M0 65.7 C0.17 42.73, -0.08 19.4, 0 3.16 M0 3.16 C0.96 1.24, 1.44 -0.38, 3.16 0 M0 3.16 C1.09 0.85, 0.05 0.59, 3.16 0" stroke="#343a40" stroke-width="2" fill="none"></path></g><g stroke-linecap="round" transform="translate(112.58179270603779 28.672312669449298) rotate(0 5.342285040950401 15.967007941530596)"><path d="M2.67 0 C4.12 -0.16, 6.84 -0.15, 8.01 0 C11.03 0.47, 13.23 1.24, 10.68 2.67 C8.41 8.54, 12.37 14.63, 10.68 29.26 C11.78 33.2, 11.59 31.48, 8.01 31.93 C5.38 32.42, 3.33 31.38, 2.67 31.93 C-1.14 33.1, -1.34 33.6, 0 29.26 C-0.46 22.19, -1.94 10.23, 0 2.67 C0.16 -0.3, 1.43 -1.38, 2.67 0" stroke="none" stroke-width="0" fill="#ff8787"></path><path d="M2.67 0 C3.82 -0.17, 5.28 0.2, 8.01 0 M2.67 0 C4.44 -0.08, 6.37 0.1, 8.01 0 M8.01 0 C9.14 0.2, 11.28 1.47, 10.68 2.67 M8.01 0 C9.39 0.16, 10.52 0.55, 10.68 2.67 M10.68 2.67 C10.62 12.25, 10.07 22.89, 10.68 29.26 M10.68 2.67 C10.88 12.61, 10.5 21.86, 10.68 29.26 M10.68 29.26 C11.33 30.78, 9.42 31.57, 8.01 31.93 M10.68 29.26 C11.43 30.98, 8.66 32.2, 8.01 31.93 M8.01 31.93 C6.6 31.89, 5.09 31.68, 2.67 31.93 M8.01 31.93 C6.63 31.86, 5.17 31.84, 2.67 31.93 M2.67 31.93 C1.08 31.36, 0.9 31.95, 0 29.26 M2.67 31.93 C1.72 32.82, 0.88 30.43, 0 29.26 M0 29.26 C0.59 22.57, 0.73 14.43, 0 2.67 M0 29.26 C-0.18 23.16, 0.46 16.77, 0 2.67 M0 2.67 C0.38 0.51, 1.84 -0.17, 2.67 0 M0 2.67 C-1 1.48, 0.58 -1.01, 2.67 0" stroke="#343a40" stroke-width="2" fill="none"></path></g><g stroke-linecap="round" transform="translate(55.03405878877044 34.4936302186037) rotate(0 38.08794762810153 4.158071455524549)"><path d="M2.08 0 C26.96 0, 51.84 0, 74.1 0 C75.48 0, 76.18 0.69, 76.18 2.08 C76.18 3.13, 76.18 4.19, 76.18 6.24 C76.18 7.62, 75.48 8.32, 74.1 8.32 C55.41 8.32, 36.72 8.32, 2.08 8.32 C0.69 8.32, 0 7.62, 0 6.24 C0 5.36, 0 4.48, 0 2.08 C0 0.69, 0.69 0, 2.08 0" stroke="none" stroke-width="0" fill="#ced4da"></path><path d="M2.08 0 C23.71 0, 45.33 0, 74.1 0 M2.08 0 C21.51 0, 40.95 0, 74.1 0 M74.1 0 C75.48 0, 76.18 0.69, 76.18 2.08 M74.1 0 C75.48 0, 76.18 0.69, 76.18 2.08 M76.18 2.08 C76.18 3.19, 76.18 4.31, 76.18 6.24 M76.18 2.08 C76.18 3.47, 76.18 4.86, 76.18 6.24 M76.18 6.24 C76.18 7.62, 75.48 8.32, 74.1 8.32 M76.18 6.24 C76.18 7.62, 75.48 8.32, 74.1 8.32 M74.1 8.32 C54.96 8.32, 35.83 8.32, 2.08 8.32 M74.1 8.32 C51.23 8.32, 28.36 8.32, 2.08 8.32 M2.08 8.32 C0.69 8.32, 0 7.62, 0 6.24 M2.08 8.32 C0.69 8.32, 0 7.62, 0 6.24 M0 6.24 C0 4.64, 0 3.04, 0 2.08 M0 6.24 C0 4.76, 0 3.28, 0 2.08 M0 2.08 C0 0.69, 0.69 0, 2.08 0 M0 2.08 C0 0.69, 0.69 0, 2.08 0" stroke="#1e1e1e" stroke-width="1" fill="none"></path></g></svg>