<svg version="1.1" xmlns="http://www.w3.org/2000/svg" viewBox="0 0 185.54625323683436 146.7860508338963" width="556.6387597105031" height="440.3581525016889">
  <!-- svg-source:excalidraw -->
  
  <defs>
    <style class="style-fonts">
      @font-face {
        font-family: "Virgil";
        src: url("https://excalidraw.com/Virgil.woff2");
      }
      @font-face {
        font-family: "Cascadia";
        src: url("https://excalidraw.com/Cascadia.woff2");
      }
      @font-face {
        font-family: "Assistant";
        src: url("https://app.excalidraw.com//dist/excalidraw-assets/Assistant-Regular.woff2");
      }
    </style>
    
  </defs>
  <g stroke-linecap="round" transform="translate(78.73774173638495 30.02126423441871) rotate(0 6.153946972362064 28.773878379124994)"><path d="M3.08 0 C4.01 0.25, 6.38 -0.08, 9.23 0 C13.44 -2.16, 13 1.84, 12.31 3.08 C12.52 13.27, 11.85 23.75, 12.31 54.47 C11.95 58.7, 10.92 57.03, 9.23 57.55 C7.23 58.31, 6.22 58.05, 3.08 57.55 C3.36 59.25, -1.46 57.04, 0 54.47 C-0.57 41.72, 1.45 33.05, 0 3.08 C1.97 1.92, -0.62 2.42, 3.08 0" stroke="none" stroke-width="0" fill="#69db7c"></path><path d="M3.08 0 C4.15 0, 5.33 -0.18, 9.23 0 M3.08 0 C4.94 0.1, 6.96 -0.14, 9.23 0 M9.23 0 C11.61 0.66, 12.16 1.96, 12.31 3.08 M9.23 0 C11.22 0.85, 12.43 1.22, 12.31 3.08 M12.31 3.08 C13.1 20.31, 11.8 38.07, 12.31 54.47 M12.31 3.08 C12.93 21.01, 12.96 39.34, 12.31 54.47 M12.31 54.47 C13.08 56.46, 11.11 57.72, 9.23 57.55 M12.31 54.47 C12.39 57.03, 10.55 58.44, 9.23 57.55 M9.23 57.55 C7.22 57.39, 4.7 57.5, 3.08 57.55 M9.23 57.55 C6.64 57.43, 4.45 57.41, 3.08 57.55 M3.08 57.55 C0.91 57.41, -0.83 57.36, 0 54.47 M3.08 57.55 C2.02 56.56, -0.75 57.27, 0 54.47 M0 54.47 C-0.63 37.35, 0.02 21.17, 0 3.08 M0 54.47 C-0.59 38.14, -0.47 20.66, 0 3.08 M0 3.08 C0.07 0.14, 0.99 -0.32, 3.08 0 M0 3.08 C-0.55 1.41, 0.7 0.74, 3.08 0" stroke="#343a40" stroke-width="2" fill="none"></path></g><g stroke-linecap="round" transform="translate(96.53430096607318 30.02126423441871) rotate(0 5.654978093152678 22.78625944227329)"><path d="M2.83 0 C4.8 -0.12, 6.35 -0.63, 8.48 0 C11.05 0.81, 8.79 0.67, 11.31 2.83 C10.97 13.11, 11.01 26.01, 11.31 42.75 C10.95 44.12, 9.43 47.64, 8.48 45.57 C6.89 46.09, 5.51 46.12, 2.83 45.57 C-0.52 46.09, -1.88 42.54, 0 42.75 C1.13 33.33, 2.19 20.84, 0 2.83 C-1.65 3.36, -1.11 -1.1, 2.83 0" stroke="none" stroke-width="0" fill="#ffd43b"></path><path d="M2.83 0 C4 -0.18, 5.7 -0.2, 8.48 0 M2.83 0 C4.97 -0.12, 7.36 0.07, 8.48 0 M8.48 0 C10.22 0.93, 11.26 1.68, 11.31 2.83 M8.48 0 C10.49 0.19, 11.8 0.55, 11.31 2.83 M11.31 2.83 C11.06 17.44, 11.98 33.37, 11.31 42.75 M11.31 2.83 C11.91 15.97, 11.86 28.29, 11.31 42.75 M11.31 42.75 C11.14 44.81, 10.44 46.02, 8.48 45.57 M11.31 42.75 C10.58 45.52, 10.99 44.64, 8.48 45.57 M8.48 45.57 C6.33 45.5, 4.78 45.42, 2.83 45.57 M8.48 45.57 C6.95 45.42, 5.15 45.53, 2.83 45.57 M2.83 45.57 C0.11 46.41, 0.87 43.77, 0 42.75 M2.83 45.57 C0.2 46.32, 0.36 45.57, 0 42.75 M0 42.75 C0.31 31.86, 0.34 20.23, 0 2.83 M0 42.75 C-0.11 29.37, 0.19 16.12, 0 2.83 M0 2.83 C-0.04 0.63, 0.46 0.34, 2.83 0 M0 2.83 C-0.33 1.69, 0.05 -0.7, 2.83 0" stroke="#343a40" stroke-width="2" fill="none"></path></g><g stroke-linecap="round" transform="translate(60.77483163020372 30.02126423441871) rotate(0 6.320275007872439 34.42886408593853)"><path d="M3.16 0 C5.9 -0.67, 7.5 0.27, 9.48 0 C9.07 -0.27, 11.68 1.33, 12.64 3.16 C12.16 23.49, 12.16 38.95, 12.64 65.7 C11.7 69.87, 12.13 67.63, 9.48 68.86 C7.74 69.45, 4.06 69.07, 3.16 68.86 C-0.83 66.77, -0.37 66.7, 0 65.7 C1.68 50.36, -1.93 35.65, 0 3.16 C-2.05 -0.05, 3.45 1.8, 3.16 0" stroke="none" stroke-width="0" fill="#4dabf7"></path><path d="M3.16 0 C5.11 -0.21, 7.21 -0.26, 9.48 0 M3.16 0 C5.63 0.13, 7.98 0.17, 9.48 0 M9.48 0 C11.53 0.74, 12.75 1.22, 12.64 3.16 M9.48 0 C12.08 -0.39, 13.47 2.07, 12.64 3.16 M12.64 3.16 C13 20.46, 12.7 36.85, 12.64 65.7 M12.64 3.16 C13.3 21.83, 12.83 40.66, 12.64 65.7 M12.64 65.7 C12.71 68.25, 10.95 69.63, 9.48 68.86 M12.64 65.7 C13.26 66.87, 12.19 69.48, 9.48 68.86 M9.48 68.86 C8.25 68.7, 6.36 68.58, 3.16 68.86 M9.48 68.86 C8.06 68.81, 6.54 68.96, 3.16 68.86 M3.16 68.86 C1.92 68, -0.65 68.45, 0 65.7 M3.16 68.86 C1.41 69.8, -0.1 67.33, 0 65.7 M0 65.7 C0.19 48.27, 0.21 28.52, 0 3.16 M0 65.7 C0.2 41.12, 0.15 17.27, 0 3.16 M0 3.16 C-0.48 1.39, 0.77 0.65, 3.16 0 M0 3.16 C-0.89 0.35, 0.57 -0.62, 3.16 0" stroke="#343a40" stroke-width="2" fill="none"></path></g><g stroke-linecap="round" transform="translate(112.33495422428032 30.02126423441871) rotate(0 5.342285040950401 15.967007941530596)"><path d="M2.67 0 C4.38 0.28, 5.06 -0.01, 8.01 0 C8.83 0.28, 10.43 0.5, 10.68 2.67 C10.28 9.91, 9.7 20.25, 10.68 29.26 C11.23 29.82, 12.2 32.72, 8.01 31.93 C5.7 32.12, 3.66 31.42, 2.67 31.93 C0.52 30.83, -1.05 31.96, 0 29.26 C-1.91 21.68, -2.31 8.16, 0 2.67 C2.39 2.69, 0.46 2.36, 2.67 0" stroke="none" stroke-width="0" fill="#ff8787"></path><path d="M2.67 0 C4.19 -0.21, 5.42 -0.16, 8.01 0 M2.67 0 C3.88 0.11, 5.12 0.08, 8.01 0 M8.01 0 C9.9 0.17, 11.11 0.55, 10.68 2.67 M8.01 0 C10.62 1.01, 10.26 0.41, 10.68 2.67 M10.68 2.67 C10.94 10.86, 10.74 18.3, 10.68 29.26 M10.68 2.67 C10.7 12.82, 10.82 23, 10.68 29.26 M10.68 29.26 C10.05 31.82, 10.33 31.12, 8.01 31.93 M10.68 29.26 C11.28 31.67, 9.16 31.26, 8.01 31.93 M8.01 31.93 C6.5 31.69, 4.81 32.16, 2.67 31.93 M8.01 31.93 C6.78 32.04, 5.89 31.82, 2.67 31.93 M2.67 31.93 C0.24 32.58, 0.31 31.86, 0 29.26 M2.67 31.93 C0.79 31.46, -0.1 31.31, 0 29.26 M0 29.26 C0.24 18.48, 0.82 8.72, 0 2.67 M0 29.26 C-0.03 22.66, -0.25 16.55, 0 2.67 M0 2.67 C-0.29 1.54, 0.11 -0.61, 2.67 0 M0 2.67 C-0.49 0.27, 1.19 0.81, 2.67 0" stroke="#343a40" stroke-width="2" fill="none"></path></g><g stroke-linecap="round" transform="translate(54.787220307012944 35.84258178357311) rotate(0 38.08794762810153 4.158071455524549)"><path d="M2.08 0 C17.69 0, 33.31 0, 74.1 0 C75.48 0, 76.18 0.69, 76.18 2.08 C76.18 3.67, 76.18 5.27, 76.18 6.24 C76.18 7.62, 75.48 8.32, 74.1 8.32 C47.77 8.32, 21.44 8.32, 2.08 8.32 C0.69 8.32, 0 7.62, 0 6.24 C0 4.85, 0 3.46, 0 2.08 C0 0.69, 0.69 0, 2.08 0" stroke="none" stroke-width="0" fill="#ced4da"></path><path d="M2.08 0 C18.47 0, 34.87 0, 74.1 0 M2.08 0 C28.4 0, 54.73 0, 74.1 0 M74.1 0 C75.48 0, 76.18 0.69, 76.18 2.08 M74.1 0 C75.48 0, 76.18 0.69, 76.18 2.08 M76.18 2.08 C76.18 3.68, 76.18 5.29, 76.18 6.24 M76.18 2.08 C76.18 3.3, 76.18 4.52, 76.18 6.24 M76.18 6.24 C76.18 7.62, 75.48 8.32, 74.1 8.32 M76.18 6.24 C76.18 7.62, 75.48 8.32, 74.1 8.32 M74.1 8.32 C55.94 8.32, 37.79 8.32, 2.08 8.32 M74.1 8.32 C53.46 8.32, 32.83 8.32, 2.08 8.32 M2.08 8.32 C0.69 8.32, 0 7.62, 0 6.24 M2.08 8.32 C0.69 8.32, 0 7.62, 0 6.24 M0 6.24 C0 4.67, 0 3.1, 0 2.08 M0 6.24 C0 5.36, 0 4.48, 0 2.08 M0 2.08 C0 0.69, 0.69 0, 2.08 0 M0 2.08 C0 0.69, 0.69 0, 2.08 0" stroke="#1e1e1e" stroke-width="1" fill="none"></path></g><g stroke-linecap="round" transform="translate(16.631321096786962 17.19864918415351) rotate(0 76.33335876464845 45.00000762939453)"><path d="M0 0 C31.09 1.69, 66.3 0.75, 152.67 0 M0 0 C60.11 -0.96, 120.43 -1.46, 152.67 0 M152.67 0 C152.61 33.01, 154.44 68.63, 152.67 90 M152.67 0 C154.26 29.52, 154.16 57.42, 152.67 90 M152.67 90 C110.36 88.83, 67.84 91.18, 0 90 M152.67 90 C118.68 90.25, 85.6 91.82, 0 90 M0 90 C-1.5 69.1, -1.75 44.4, 0 0 M0 90 C1.62 63.35, 0.1 39.07, 0 0" stroke="#343a40" stroke-width="1" fill="none"></path></g><g stroke-linecap="round" transform="translate(10 10) rotate(0 82.77312661841718 51.765984900914674)"><path d="M0 0 C39.66 -0.83, 78.55 -0.64, 165.55 0 M0 0 C62.31 -0.62, 124.48 0.6, 165.55 0 M165.55 0 C166.09 28.94, 165.5 56.05, 165.55 103.53 M165.55 0 C167.22 30.9, 166.27 62.11, 165.55 103.53 M165.55 103.53 C116.28 103.55, 62.29 103.52, 0 103.53 M165.55 103.53 C106.7 103.56, 47.78 102.5, 0 103.53 M0 103.53 C-1.01 81.19, 0.54 57.63, 0 0 M0 103.53 C-1.55 64.48, -0.58 24.96, 0 0" stroke="#343a40" stroke-width="1" fill="none"></path></g><g stroke-linecap="round"><g transform="translate(82.35222501453487 113.47930112382016) rotate(0 -0.2164817630286251 9.276547761525876)"><path d="M0 0 C0.67 6.12, 0.24 12.44, -0.76 18.55 M0 0 C0.13 6.29, -0.61 11.56, -0.76 18.55" stroke="#343a40" stroke-width="1" fill="none"></path></g></g><mask></mask><g stroke-linecap="round"><g transform="translate(97.40987632142404 114.47523504478863) rotate(0 0.66668701171875 9)"><path d="M0 0 C1.13 5.24, 1 10.66, 1.33 18 M0 0 C0.25 4.6, 0.67 9.8, 1.33 18" stroke="#343a40" stroke-width="1" fill="none"></path></g></g><mask></mask><g stroke-linecap="round"><g transform="translate(79.18523669371419 136.38477460614786) rotate(0 11.11941821520847 0.17572320984905332)"><path d="M0 0 C6.72 0.4, 12.77 0.68, 22.24 -0.05 M0 0 C8.52 0.27, 17.69 0.11, 22.24 -0.05" stroke="#343a40" stroke-width="1" fill="none"></path></g></g><mask></mask></svg>