<svg width="111.16" height="112.38" viewBox="0 0 111.16 112.38" xmlns="http://www.w3.org/2000/svg">
	<path style="fill:#939dac;" d="m 85.63,28.65 v 11.90 c 0,9.23 -7.82,16.99 -16.75,17 h -26.78 c -7.33,0 -13.40,6.27 -13.40,13.62 v 25.53 c 0,7.26 6.31,11.54 13.40,13.62 8.48,2.49 16.62,2.94 26.78,0 6.75,-1.95 13.40,-5.88 13.40,-13.62 v -10.21 h -26.78 v -3.40 h 26.78 13.40 c 7.79,0 10.69,-5.43 13.40,-13.59 2.79,-8.39 2.68,-16.47 0,-27.25 -1.92,-7.75 -5.60,-13.59 -13.40,-13.59 z M 72.83,63.12 86.59,68.53 v 3.07 L 72.83,77.01 V 73.77 L 83.18,70.08 72.83,66.37 Z m -30.37,5.59 h 10.29 v 3.78 H 42.45 Z m 16.05,0 h 10.29 v 3.78 H 58.51 Z m 12.06,24.59 c 2.77,3e-6 5.03,2.27 5.03,5.09 -2e-6,2.82 -2.25,5.12 -5.03,5.12 -2.76,0 -5.03,-2.29 -5.03,-5.12 2e-6,-2.81 2.26,-5.09 5.03,-5.09 z" />
	<path style="fill:#535d6c;" d="M 54.91,9.19e-4 C 50.33,0.02 45.95,0.41 42.10,1.09 30.76,3.09 28.70,7.29 28.70,15.03 v 10.21 h 26.81 v 3.40 h -23.03 v 6.10 l -0.88,7.5 h -1.80 l -1.01,-7.5 v -6.10 h -0.07 -10.06 c -7.79,0 -14.61,4.68 -16.75,13.59 -2.46,10.21 -2.57,16.58 0,27.25 1.90,7.93 6.45,13.59 14.25,13.59 h 9.21 v -12.25 c 0,-8.84 7.65,-16.65 16.75,-16.65 h 26.78 c 7.45,0 13.40,-6.13 13.40,-13.62 v -25.53 c 0,-7.26 -6.12,-12.72 -13.40,-13.93 C 64.28,0.32 59.50,-0.02 54.91,9.19e-4 Z m -14.5,8.21 c 2.76,0 5.03,2.29 5.03,5.12 -2e-6,2.81 -2.26,5.09 -5.03,5.09 -2.77,-1e-6 -5.03,-2.27 -5.03,-5.09 -10e-7,-2.82 2.25,-5.12 5.03,-5.12 z M 21.50,33.14 v 3.25 l -10.35,3.71 10.35,3.68 v 3.24 L 7.74,41.63 v -3.07 z m 20.95,5.59 h 10.29 v 3.78 H 42.45 Z m 16.05,0 h 10.29 v 3.78 H 58.51 Z m -27.82,5.85 c 0.64,0 1.17,0.22 1.60,0.66 0.42,0.42 0.63,1.00 0.63,1.73 0,0.18 -0.02,0.39 -0.06,0.63 -0.03,0.19 -0.10,0.38 -0.22,0.58 -0.05,0.09 -0.10,0.17 -0.14,0.23 -0.04,0.06 -0.11,0.14 -0.22,0.25 -0.22,0.23 -0.46,0.40 -0.72,0.50 -0.14,0.06 -0.29,0.11 -0.44,0.13 -0.14,0.02 -0.29,0.03 -0.44,0.03 -0.32,0 -0.63,-0.06 -0.91,-0.18 -0.26,-0.12 -0.50,-0.28 -0.70,-0.48 -0.43,-0.43 -0.65,-1.01 -0.65,-1.74 0,-0.70 0.21,-1.27 0.65,-1.70 0.09,-0.09 0.15,-0.15 0.18,-0.16 l 0.09,-0.09 c 0.09,-0.06 0.19,-0.12 0.29,-0.18 0.01,-0.00 0.06,-0.02 0.13,-0.05 0.07,-0.03 0.14,-0.06 0.19,-0.07 l 0.33,-0.07 c 0.13,-0.01 0.27,-0.02 0.40,-0.02 z" />
</svg>
