<svg id="Layer_1" data-name="Layer 1" xmlns="http://www.w3.org/2000/svg" viewBox="0 0 30 30"><defs><style>.cls-1{fill:#277cee;}.cls-2{fill:#fff;}.cls-3{fill:#8fd6e4;}</style></defs><title>invoice_fabicon</title><circle class="cls-1" cx="15" cy="15" r="15"/><path class="cls-2" d="M20.94,6.4H9.84c-.26,0-2,.13-2,3.42H9.52V22.46l1.39,1.79,1.66-1.77,1.57,1.77,1.57-1.79,1.58,1.77,1.56-1.75,1.56,1.94,1.6-1.6V7.47C22,6.68,21.73,6.4,20.94,6.4ZM9.52,9H8.62a2.58,2.58,0,0,1,.63-1.62,1,1,0,0,1,.27-.18ZM21.3,22.52l-.83.83L19.4,22l-.53-.66-.56.63-1,1.15-1-1.17-.54-.6-.53.61-1,1.18L13.1,22l-.52-.59L12,22,11,23.15l-.73-.94V9.63h0V7.11H20.94a1,1,0,0,1,.32,0,1,1,0,0,1,0,.32Z"/><path class="cls-1" d="M14.51,3.26a1,1,0,0,0,.93.93,1,1,0,0,0-.93.93,1,1,0,0,0-.93-.93A1,1,0,0,0,14.51,3.26Z"/><path class="cls-3" d="M14.4,3.26h.22a.92.92,0,0,0,.82.82V4.3a.92.92,0,0,0-.82.82H14.4a.92.92,0,0,0-.82-.82V4.08A.92.92,0,0,0,14.4,3.26Zm.62.93a1.23,1.23,0,0,1-.51-.51,1.23,1.23,0,0,1-.51.51,1.23,1.23,0,0,1,.51.51A1.23,1.23,0,0,1,15,4.19Z"/><path class="cls-3" d="M14.62,5.17H14.4a0,0,0,0,1,0,0,.87.87,0,0,0-.77-.77,0,0,0,0,1,0,0V4.08a0,0,0,0,1,0,0,.87.87,0,0,0,.77-.77,0,0,0,0,1,0,0h.22a0,0,0,0,1,0,0,.87.87,0,0,0,.77.77,0,0,0,0,1,0,0V4.3a0,0,0,0,1,0,0,.87.87,0,0,0-.77.77A0,0,0,0,1,14.62,5.17Zm-.17-.1h.12a1,1,0,0,1,.82-.82V4.13a1,1,0,0,1-.82-.82h-.12a1,1,0,0,1-.82.82v.12A1,1,0,0,1,14.45,5.07Zm.06-.32a0,0,0,0,1,0,0A1.18,1.18,0,0,0,14,4.23a.05.05,0,0,1,0-.09,1.18,1.18,0,0,0,.49-.49.05.05,0,0,1,.09,0,1.18,1.18,0,0,0,.49.49.05.05,0,0,1,0,.09,1.18,1.18,0,0,0-.49.49A0,0,0,0,1,14.51,4.75Zm-.41-.56a1.29,1.29,0,0,1,.41.41,1.3,1.3,0,0,1,.41-.41,1.3,1.3,0,0,1-.41-.41A1.29,1.29,0,0,1,14.1,4.19Z"/><path class="cls-3" d="M24.29,12a.63.63,0,1,1,.63-.63A.63.63,0,0,1,24.29,12Zm0-1a.38.38,0,1,0,.38.38A.38.38,0,0,0,24.29,11Z"/><path class="cls-3" d="M24.29,12a.68.68,0,1,1,.68-.68A.68.68,0,0,1,24.29,12Zm0-1.26a.58.58,0,1,0,.58.58A.58.58,0,0,0,24.29,10.75Zm0,1a.43.43,0,1,1,.43-.43A.43.43,0,0,1,24.29,11.77Zm0-.76a.33.33,0,1,0,.33.33A.33.33,0,0,0,24.29,11Z"/><path class="cls-3" d="M5.63,13.76a.63.63,0,1,1,.63-.63A.63.63,0,0,1,5.63,13.76Zm0-1a.38.38,0,1,0,.38.38A.38.38,0,0,0,5.63,12.74Z"/><path class="cls-3" d="M5.63,13.81a.68.68,0,1,1,.68-.68A.68.68,0,0,1,5.63,13.81Zm0-1.26a.58.58,0,1,0,.58.58A.58.58,0,0,0,5.63,12.54Zm0,1a.43.43,0,1,1,.43-.43A.43.43,0,0,1,5.63,13.56Zm0-.76a.33.33,0,1,0,.33.33A.33.33,0,0,0,5.63,12.79Z"/><path class="cls-1" d="M26.23,13.32a1,1,0,0,0,.93.93,1,1,0,0,0-.93.93,1,1,0,0,0-.93-.93A1,1,0,0,0,26.23,13.32Z"/><path class="cls-3" d="M26.12,13.32h.22a.92.92,0,0,0,.82.82v.22a.92.92,0,0,0-.82.82h-.22a.92.92,0,0,0-.82-.82v-.22A.92.92,0,0,0,26.12,13.32Zm.62.93a1.23,1.23,0,0,1-.51-.51,1.23,1.23,0,0,1-.51.51,1.23,1.23,0,0,1,.51.51A1.23,1.23,0,0,1,26.74,14.25Z"/><path class="cls-3" d="M26.34,15.23h-.22a0,0,0,0,1,0,0,.87.87,0,0,0-.77-.77,0,0,0,0,1,0,0v-.22a0,0,0,0,1,0,0,.87.87,0,0,0,.77-.77,0,0,0,0,1,0,0h.22a0,0,0,0,1,0,0,.87.87,0,0,0,.77.77,0,0,0,0,1,0,0v.22a0,0,0,0,1,0,0,.87.87,0,0,0-.77.77A0,0,0,0,1,26.34,15.23Zm-.17-.1h.12a1,1,0,0,1,.82-.82v-.12a1,1,0,0,1-.82-.82h-.12a1,1,0,0,1-.82.82v.12A1,1,0,0,1,26.17,15.13Zm.06-.32a0,0,0,0,1,0,0,1.18,1.18,0,0,0-.49-.49.05.05,0,0,1,0-.09,1.18,1.18,0,0,0,.49-.49.05.05,0,0,1,.09,0,1.18,1.18,0,0,0,.49.49.05.05,0,0,1,0,.09,1.18,1.18,0,0,0-.49.49A0,0,0,0,1,26.23,14.81Zm-.41-.56a1.29,1.29,0,0,1,.41.41,1.3,1.3,0,0,1,.41-.41,1.3,1.3,0,0,1-.41-.41A1.29,1.29,0,0,1,25.82,14.25Z"/><path class="cls-1" d="M7.56,17.84a1,1,0,0,0,.93.93,1,1,0,0,0-.93.93,1,1,0,0,0-.93-.93A1,1,0,0,0,7.56,17.84Z"/><path class="cls-3" d="M7.45,17.84h.22a.92.92,0,0,0,.82.82v.22a.92.92,0,0,0-.82.82H7.45a.92.92,0,0,0-.82-.82v-.22A.92.92,0,0,0,7.45,17.84Zm.62.93a1.23,1.23,0,0,1-.51-.51,1.23,1.23,0,0,1-.51.51,1.23,1.23,0,0,1,.51.51A1.23,1.23,0,0,1,8.07,18.77Z"/><path class="cls-3" d="M7.67,19.75H7.45a0,0,0,0,1,0,0,.87.87,0,0,0-.77-.77,0,0,0,0,1,0,0v-.22a0,0,0,0,1,0,0,.87.87,0,0,0,.77-.77,0,0,0,0,1,0,0h.22a0,0,0,0,1,0,0,.87.87,0,0,0,.77.77,0,0,0,0,1,0,0v.22a0,0,0,0,1,0,0,.87.87,0,0,0-.77.77A0,0,0,0,1,7.67,19.75Zm-.17-.1h.12a1,1,0,0,1,.82-.82v-.12a1,1,0,0,1-.82-.82H7.49a1,1,0,0,1-.82.82v.12A1,1,0,0,1,7.49,19.65Zm.06-.32a0,0,0,0,1,0,0A1.18,1.18,0,0,0,7,18.82a.05.05,0,0,1,0-.09,1.18,1.18,0,0,0,.49-.49.05.05,0,0,1,.09,0,1.18,1.18,0,0,0,.49.49.05.05,0,0,1,0,.09,1.18,1.18,0,0,0-.49.49A0,0,0,0,1,7.56,19.33Zm-.41-.56a1.29,1.29,0,0,1,.41.41A1.3,1.3,0,0,1,8,18.77a1.3,1.3,0,0,1-.41-.41A1.29,1.29,0,0,1,7.15,18.77Z"/><g id="Text_Align_Justify" data-name="Text Align Justify"><path class="cls-2" d="M19.38,16.31h-6.9a.35.35,0,0,0-.35.35v.69a.35.35,0,0,0,.35.35h6.9a.35.35,0,0,0,.35-.35v-.69A.35.35,0,0,0,19.38,16.31Zm0,1h-6.9v-.69h6.9Zm0-5.18h-6.9a.35.35,0,0,0-.35.35v.69a.35.35,0,0,0,.35.35h6.9a.35.35,0,0,0,.35-.35v-.69A.35.35,0,0,0,19.38,12.17Zm0,1h-6.9v-.69h6.9Zm0,1h-6.9a.35.35,0,0,0-.35.35v.69a.34.34,0,0,0,.35.35h6.9a.34.34,0,0,0,.35-.35v-.69A.35.35,0,0,0,19.38,14.24Zm0,1h-6.9v-.69h6.9Zm0-5.18h-6.9a.35.35,0,0,0-.35.35v.69a.35.35,0,0,0,.35.35h6.9a.35.35,0,0,0,.35-.35v-.69A.35.35,0,0,0,19.38,10.1Zm0,1h-6.9v-.69h6.9Z"/></g></svg>