<?xml version="1.0" encoding="UTF-8" standalone="no"?>
<!-- Created with Inkscape (http://www.inkscape.org/) -->

<svg
   xmlns:dc="http://purl.org/dc/elements/1.1/"
   xmlns:cc="http://creativecommons.org/ns#"
   xmlns:rdf="http://www.w3.org/1999/02/22-rdf-syntax-ns#"
   xmlns:svg="http://www.w3.org/2000/svg"
   xmlns="http://www.w3.org/2000/svg"
   xmlns:sodipodi="http://sodipodi.sourceforge.net/DTD/sodipodi-0.dtd"
   xmlns:inkscape="http://www.inkscape.org/namespaces/inkscape"
   version="1.1"
   id="svg2"
   xml:space="preserve"
   width="460"
   height="460"
   viewBox="0 0 460 460"
   sodipodi:docname="xpcsutilities-logo.svg"
   inkscape:version="0.92.5 (2060ec1f9f, 2020-04-08)"
   inkscape:export-filename="/users/opid02/Documents/xpcsutilities-logo.png"
   inkscape:export-xdpi="13.356522"
   inkscape:export-ydpi="13.356522"><metadata
     id="metadata8"><rdf:RDF><cc:Work
         rdf:about=""><dc:format>image/svg+xml</dc:format><dc:type
           rdf:resource="http://purl.org/dc/dcmitype/StillImage" /><dc:title /></cc:Work></rdf:RDF></metadata><defs
     id="defs6"><clipPath
       clipPathUnits="userSpaceOnUse"
       id="clipPath314"><path
         d="M 576,380.16 H 4147.2 V 3041.28 H 576 Z"
         id="path312"
         inkscape:connector-curvature="0" /></clipPath><clipPath
       id="clipPath9397"
       clipPathUnits="userSpaceOnUse"><path
         inkscape:connector-curvature="0"
         id="path9395"
         d="M 576,380.16 H 4147.2 V 3041.28 H 576 Z" /></clipPath></defs><sodipodi:namedview
     pagecolor="#ffffff"
     bordercolor="#666666"
     borderopacity="1"
     objecttolerance="10"
     gridtolerance="10"
     guidetolerance="10"
     inkscape:pageopacity="0"
     inkscape:pageshadow="2"
     inkscape:window-width="1920"
     inkscape:window-height="1149"
     id="namedview4"
     showgrid="false"
     inkscape:zoom="0.72429342"
     inkscape:cx="-229.46069"
     inkscape:cy="178.22106"
     inkscape:window-x="0"
     inkscape:window-y="27"
     inkscape:window-maximized="1"
     inkscape:current-layer="g10" /><g
     id="g10"
     inkscape:groupmode="layer"
     inkscape:label="ink_ext_XXXXXX"
     transform="matrix(1.3333333,0,0,-1.3333333,0,460.00001)"><rect
   style="fill:#ffffff;stroke-width:0.77482641"
   id="rect9622"
   width="345"
   height="345"
   x="0"
   y="-345"
   transform="scale(1,-1)" /><g
   transform="matrix(1.0962653,0,0,1.0962653,-42.20349,-146.06374)"
   inkscape:label="ink_ext_XXXXXX"
   id="g7988"
   style="fill:#aaccff"><g
     transform="scale(0.1)"
     id="g7990"
     style="fill:#aaccff"><path
       inkscape:connector-curvature="0"
       id="path7992"
       style="fill:#aaccff;fill-opacity:1;fill-rule:nonzero;stroke:none"
       d="m 2438.54,2441.53 c -43.36,67.41 -133.28,86.88 -200.69,43.71 -67.43,-43.35 -86.9,-133.18 -43.54,-200.64 43.25,-67.41 133.09,-86.88 200.5,-43.63 67.33,43.36 86.98,133.14 43.73,200.56" /><path
       inkscape:connector-curvature="0"
       id="path7994"
       style="fill:#aaccff;fill-opacity:1;fill-rule:nonzero;stroke:none"
       d="m 2617.92,2768.5 c -72.93,33.25 -159.18,1.1 -192.34,-71.64 -33.34,-72.93 -1.28,-159.08 71.65,-192.32 72.92,-33.26 159.07,-1.29 192.41,71.64 33.26,72.92 1.01,159.07 -71.72,192.32" /><path
       inkscape:connector-curvature="0"
       id="path7996"
       style="fill:#aaccff;fill-opacity:1;fill-rule:nonzero;stroke:none"
       d="m 2585.22,3150.03 c -79.37,-11.38 -134.47,-85.06 -123.08,-164.23 11.38,-79.34 85.05,-134.45 164.31,-123.07 79.27,11.39 134.38,85.06 122.99,164.23 -11.3,79.35 -84.87,134.46 -164.22,123.07" /><path
       inkscape:connector-curvature="0"
       id="path7998"
       style="fill:#aaccff;fill-opacity:1;fill-rule:nonzero;stroke:none"
       d="m 2349.81,3437.7 c -60.44,-52.35 -66.95,-144.2 -14.42,-204.64 52.35,-60.62 144.11,-67.24 204.63,-14.69 60.62,52.53 67.14,144.2 14.7,204.82 -52.54,60.44 -144.21,67.05 -204.91,14.51" /><path
       inkscape:connector-curvature="0"
       id="path8000"
       style="fill:#aaccff;fill-opacity:1;fill-rule:nonzero;stroke:none"
       d="m 2000.14,3578.04 c -22.59,-76.97 21.59,-157.61 98.37,-180.2 76.89,-22.6 157.71,21.49 180.12,98.27 22.68,76.97 -21.41,157.62 -98.37,180.21 -76.79,22.59 -157.51,-21.5 -180.12,-98.28" /><path
       inkscape:connector-curvature="0"
       id="path8002"
       style="fill:#aaccff;fill-opacity:1;fill-rule:nonzero;stroke:none"
       d="m 1630.28,3496.11 c 22.59,-76.78 103.23,-120.87 180.12,-98.27 76.86,22.59 120.95,103.23 98.36,180.2 -22.6,76.78 -103.24,120.87 -180.12,98.28 -76.87,-22.59 -120.96,-103.24 -98.36,-180.21" /><path
       inkscape:connector-curvature="0"
       id="path8004"
       style="fill:#aaccff;fill-opacity:1;fill-rule:nonzero;stroke:none"
       d="m 1368.88,3218.37 c 60.62,-52.55 152.29,-45.93 204.73,14.69 52.54,60.44 45.92,152.29 -14.6,204.64 -60.53,52.54 -152.29,45.93 -204.83,-14.51 -52.44,-60.62 -45.83,-152.29 14.7,-204.82" /><path
       inkscape:connector-curvature="0"
       id="path8006"
       style="fill:#aaccff;fill-opacity:1;fill-rule:nonzero;stroke:none"
       d="m 1282.46,2862.73 c 79.25,-11.38 152.92,43.73 164.3,123.07 11.4,79.17 -43.71,152.85 -122.99,164.23 -79.34,11.39 -152.92,-43.72 -164.3,-123.07 -11.4,-79.17 43.71,-152.84 122.99,-164.23" /><path
       inkscape:connector-curvature="0"
       id="path8008"
       style="fill:#aaccff;fill-opacity:1;fill-rule:nonzero;stroke:none"
       d="m 1427.76,2504.54 c 72.92,33.24 104.98,119.39 71.63,192.32 -33.15,72.74 -119.31,104.89 -192.32,71.64 -72.75,-33.25 -104.89,-119.4 -71.65,-192.32 33.34,-72.93 119.5,-104.9 192.34,-71.64" /><path
       inkscape:connector-curvature="0"
       id="path8010"
       style="fill:#aaccff;fill-opacity:1;fill-rule:nonzero;stroke:none"
       d="m 1730.85,2284.6 c 43.26,67.46 23.78,157.29 -43.72,200.64 -67.42,43.17 -157.24,23.7 -200.59,-43.71 -43.26,-67.42 -23.7,-157.2 43.62,-200.56 67.51,-43.25 157.25,-23.78 200.69,43.63" /><path
       inkscape:connector-curvature="0"
       id="path8012"
       style="fill:#aaccff;fill-opacity:1;fill-rule:nonzero;stroke:none"
       d="m 2107.7,2250.57 c 0,80.05 -65.12,145.03 -145.12,145.03 -80.18,0 -145.21,-64.98 -145.21,-145.03 0,-80.14 65.03,-145.21 145.21,-145.21 80,0 145.12,65.07 145.12,145.21" /><path
       inkscape:connector-curvature="0"
       id="path8014"
       style="fill:#aaccff;fill-opacity:1;fill-rule:nonzero;stroke:none"
       d="m 2315,1994.64 c -14.15,48.09 -64.58,75.64 -112.6,61.45 -48.14,-14.1 -75.6,-64.52 -61.54,-112.61 14.14,-48.04 64.56,-75.59 112.6,-61.4 48.04,14.01 75.59,64.53 61.54,112.56" /><path
       inkscape:connector-curvature="0"
       id="path8016"
       style="fill:#aaccff;fill-opacity:1;fill-rule:nonzero;stroke:none"
       d="m 2561.52,2130.77 c -27.1,42.01 -83.21,54.26 -125.46,27.18 -42.07,-27.01 -54.19,-83.17 -27.1,-125.38 27,-42.15 83.21,-54.37 125.37,-27.27 42.07,27.1 54.28,83.21 27.19,125.47" /><path
       inkscape:connector-curvature="0"
       id="path8018"
       style="fill:#aaccff;fill-opacity:1;fill-rule:nonzero;stroke:none"
       d="m 2753.66,2335.17 c -37.84,32.7 -95.15,28.65 -127.84,-9.14 -32.8,-37.84 -28.75,-95.21 9,-127.95 37.92,-32.79 95.33,-28.75 128.03,9.14 32.78,37.79 28.65,95.21 -9.19,127.95" /><path
       inkscape:connector-curvature="0"
       id="path8020"
       style="fill:#aaccff;fill-opacity:1;fill-rule:nonzero;stroke:none"
       d="m 2884.82,2582.23 c -45.56,20.76 -99.47,0.74 -120.32,-44.64 -20.75,-45.74 -0.64,-99.56 44.92,-120.32 45.55,-20.76 99.36,-0.73 120.13,44.83 20.85,45.55 0.83,99.37 -44.73,120.13" /><path
       inkscape:connector-curvature="0"
       id="path8022"
       style="fill:#aaccff;fill-opacity:1;fill-rule:nonzero;stroke:none"
       d="m 2940.4,2855.01 c -49.52,7 -95.62,-27.37 -102.7,-76.96 -7.07,-49.6 27.37,-95.52 76.88,-102.68 49.51,-7.16 95.61,27.37 102.68,76.78 7.26,49.6 -27.37,95.71 -76.86,102.86" /><path
       inkscape:connector-curvature="0"
       id="path8024"
       style="fill:#aaccff;fill-opacity:1;fill-rule:nonzero;stroke:none"
       d="m 2914.58,3136.44 c -49.51,-7.16 -83.95,-53.1 -76.88,-102.69 7.08,-49.77 53.18,-84.14 102.7,-76.97 49.49,7.17 84.12,53.09 76.86,102.69 -7.07,49.6 -53.17,83.94 -102.68,76.97" /><path
       inkscape:connector-curvature="0"
       id="path8026"
       style="fill:#aaccff;fill-opacity:1;fill-rule:nonzero;stroke:none"
       d="m 2809.42,3394.54 c -45.56,-20.77 -65.67,-74.77 -44.92,-120.15 20.85,-45.74 74.76,-65.76 120.32,-45 45.56,20.76 65.58,74.76 44.73,120.32 -20.77,45.37 -74.58,65.58 -120.13,44.83" /><path
       inkscape:connector-curvature="0"
       id="path8028"
       style="fill:#aaccff;fill-opacity:1;fill-rule:nonzero;stroke:none"
       d="m 2634.82,3613.68 c -37.75,-32.7 -41.8,-90.01 -9,-128.04 32.69,-37.65 90,-41.89 127.84,-9 37.84,32.88 41.97,90 9.19,127.86 -32.7,37.84 -90.11,42.06 -128.03,9.18" /><path
       inkscape:connector-curvature="0"
       id="path8030"
       style="fill:#aaccff;fill-opacity:1;fill-rule:nonzero;stroke:none"
       d="m 2408.96,3779.18 c -27.09,-42.07 -14.97,-98.28 27.1,-125.45 42.25,-27.01 98.36,-14.7 125.46,27.36 27.09,42.07 14.88,98.28 -27.19,125.28 -42.16,27.19 -98.37,14.88 -125.37,-27.19" /><path
       inkscape:connector-curvature="0"
       id="path8032"
       style="fill:#aaccff;fill-opacity:1;fill-rule:nonzero;stroke:none"
       d="m 2140.86,3876.35 c -14.06,-48.12 13.4,-98.46 61.54,-112.58 48.02,-14.16 98.45,13.4 112.6,61.33 14.05,48.13 -13.5,98.47 -61.54,112.61 -48.04,14.15 -98.46,-13.41 -112.6,-61.36" /><path
       inkscape:connector-curvature="0"
       id="path8034"
       style="fill:#aaccff;fill-opacity:1;fill-rule:nonzero;stroke:none"
       d="m 1863.75,3882.97 c 0,-50.14 40.69,-90.74 90.75,-90.74 50.06,0 90.65,40.6 90.65,90.74 0,49.97 -40.59,90.57 -90.65,90.57 -50.06,0 -90.75,-40.6 -90.75,-90.57" /><path
       inkscape:connector-curvature="0"
       id="path8036"
       style="fill:#aaccff;fill-opacity:1;fill-rule:nonzero;stroke:none"
       d="m 1594.1,3825.1 c 14.04,-47.93 64.47,-75.49 112.5,-61.33 48.13,14.12 75.68,64.46 61.54,112.58 -14.14,47.95 -64.57,75.51 -112.61,61.36 -48.12,-14.14 -75.58,-64.48 -61.43,-112.61" /><path
       inkscape:connector-curvature="0"
       id="path8038"
       style="fill:#aaccff;fill-opacity:1;fill-rule:nonzero;stroke:none"
       d="m 1347.48,3681.09 c 27,-42.06 83.21,-54.37 125.37,-27.36 42.07,27.17 54.27,83.38 27.28,125.45 -27.1,42.07 -83.31,54.38 -125.38,27.19 -42.15,-27 -54.36,-83.21 -27.27,-125.28" /><path
       inkscape:connector-curvature="0"
       id="path8040"
       style="fill:#aaccff;fill-opacity:1;fill-rule:nonzero;stroke:none"
       d="m 1155.34,3476.64 c 37.75,-32.89 95.14,-28.65 127.84,9 32.89,38.03 28.75,95.34 -9.09,128.04 -37.84,32.88 -95.15,28.66 -128.03,-9.18 -32.7,-37.86 -28.66,-94.98 9.28,-127.86" /><path
       inkscape:connector-curvature="0"
       id="path8042"
       style="fill:#aaccff;fill-opacity:1;fill-rule:nonzero;stroke:none"
       d="m 1032.16,3229.39 c 45.66,-20.76 99.48,-0.74 120.33,45 20.76,45.38 0.64,99.38 -44.92,120.15 -45.55,20.75 -99.37,0.54 -120.132,-44.83 -20.754,-45.56 -0.735,-99.56 44.722,-120.32" /><path
       inkscape:connector-curvature="0"
       id="path8044"
       style="fill:#aaccff;fill-opacity:1;fill-rule:nonzero;stroke:none"
       d="m 976.598,2956.78 c 49.602,-7.17 95.512,27.2 102.682,76.97 7.17,49.59 -27.27,95.53 -76.87,102.69 -49.601,6.97 -95.617,-27.37 -102.777,-76.97 -6.981,-49.6 27.375,-95.52 76.965,-102.69" /><path
       inkscape:connector-curvature="0"
       id="path8046"
       style="fill:#aaccff;fill-opacity:1;fill-rule:nonzero;stroke:none"
       d="m 1002.41,2675.37 c 49.6,7.16 84.04,53.08 76.87,102.68 -7.17,49.59 -53.08,83.96 -102.682,76.96 -49.59,-7.15 -83.946,-53.26 -76.965,-102.86 7.16,-49.41 53.176,-83.94 102.777,-76.78" /><path
       inkscape:connector-curvature="0"
       id="path8048"
       style="fill:#aaccff;fill-opacity:1;fill-rule:nonzero;stroke:none"
       d="m 1107.57,2417.27 c 45.56,20.76 65.68,74.58 44.92,120.32 -20.85,45.38 -74.67,65.4 -120.33,44.64 -45.457,-20.76 -65.476,-74.58 -44.722,-120.13 20.762,-45.56 74.582,-65.59 120.132,-44.83" /><path
       inkscape:connector-curvature="0"
       id="path8050"
       style="fill:#aaccff;fill-opacity:1;fill-rule:nonzero;stroke:none"
       d="m 1274.09,2198.08 c 37.84,32.74 41.98,90.11 9.09,127.95 -32.7,37.79 -90.09,41.84 -127.84,9.14 -37.94,-32.74 -41.98,-90.16 -9.28,-127.95 32.88,-37.89 90.19,-41.93 128.03,-9.14" /><path
       inkscape:connector-curvature="0"
       id="path8052"
       style="fill:#aaccff;fill-opacity:1;fill-rule:nonzero;stroke:none"
       d="m 1500.13,2032.57 c 26.99,42.21 14.79,98.37 -27.28,125.38 -42.16,27.08 -98.37,14.83 -125.37,-27.18 -27.09,-42.26 -14.88,-98.37 27.27,-125.47 42.07,-27.1 98.28,-14.88 125.38,27.27" /><path
       inkscape:connector-curvature="0"
       id="path8054"
       style="fill:#aaccff;fill-opacity:1;fill-rule:nonzero;stroke:none"
       d="m 1768.14,1943.48 c 14.14,48.09 -13.41,98.51 -61.54,112.61 -48.03,14.19 -98.46,-13.36 -112.5,-61.45 -14.15,-48.03 13.31,-98.55 61.43,-112.56 48.04,-14.19 98.47,13.36 112.61,61.4" /><path
       inkscape:connector-curvature="0"
       id="path8056"
       style="fill:#aaccff;fill-opacity:1;fill-rule:nonzero;stroke:none"
       d="m 2045.15,1928.93 c 0,50.01 -40.59,90.64 -90.65,90.64 -50.06,0 -90.75,-40.63 -90.75,-90.64 0,-50.15 40.69,-90.74 90.75,-90.74 50.06,0 90.65,40.59 90.65,90.74" /><path
       inkscape:connector-curvature="0"
       id="path8058"
       style="fill:#aaccff;fill-opacity:1;fill-rule:nonzero;stroke:none"
       d="m 2377.92,1748.27 c -11.3,38.42 -51.63,60.47 -90.01,49.27 -38.48,-11.39 -60.53,-51.75 -49.24,-90.19 11.21,-38.4 51.63,-60.48 90.02,-49.19 38.47,11.38 60.61,51.72 49.23,90.11" /><path
       inkscape:connector-curvature="0"
       id="path8060"
       style="fill:#aaccff;fill-opacity:1;fill-rule:nonzero;stroke:none"
       d="m 2691.02,1911.8 c -21.67,33.65 -66.49,43.44 -100.29,21.81 -33.71,-21.72 -43.45,-66.58 -21.96,-100.25 21.87,-33.76 66.68,-43.53 100.48,-21.91 33.71,21.73 43.45,66.68 21.77,100.35" /><path
       inkscape:connector-curvature="0"
       id="path8062"
       style="fill:#aaccff;fill-opacity:1;fill-rule:nonzero;stroke:none"
       d="m 2934.78,2152.56 c -30.21,26.23 -76.14,22.97 -102.31,-7.33 -26.36,-30.18 -23.05,-76.1 7.25,-102.32 30.31,-26.23 76.23,-22.96 102.41,7.34 26.18,30.17 22.87,76.1 -7.35,102.31" /><path
       inkscape:connector-curvature="0"
       id="path8064"
       style="fill:#aaccff;fill-opacity:1;fill-rule:nonzero;stroke:none"
       d="m 3110.48,2453.29 c -36.55,16.52 -79.62,0.54 -96.25,-36.02 -16.63,-36.37 -0.46,-79.35 35.82,-96.03 36.56,-16.71 79.63,-0.54 96.26,35.78 16.61,36.56 0.55,79.55 -35.83,96.27" /><path
       inkscape:connector-curvature="0"
       id="path8066"
       style="fill:#aaccff;fill-opacity:1;fill-rule:nonzero;stroke:none"
       d="m 3187.09,2796.79 c -39.59,5.69 -76.52,-21.86 -82.11,-61.54 -5.79,-39.68 21.86,-76.42 61.54,-82.11 39.58,-5.69 76.32,21.85 82.11,61.53 5.6,39.69 -21.87,76.43 -61.54,82.12" /><path
       inkscape:connector-curvature="0"
       id="path8068"
       style="fill:#aaccff;fill-opacity:1;fill-rule:nonzero;stroke:none"
       d="m 3166.52,3150.59 c -39.68,-5.7 -67.33,-42.44 -61.54,-82.12 5.59,-39.68 42.52,-67.23 82.11,-61.54 39.67,5.69 67.14,42.44 61.54,82.12 -5.79,39.67 -42.53,67.22 -82.11,61.54" /><path
       inkscape:connector-curvature="0"
       id="path8070"
       style="fill:#aaccff;fill-opacity:1;fill-rule:nonzero;stroke:none"
       d="m 3050.05,3482.52 c -36.28,-16.72 -52.45,-59.7 -35.82,-96.26 16.63,-36.36 59.7,-52.35 96.25,-35.82 36.38,16.72 52.44,59.7 35.83,96.26 -16.63,36.37 -59.7,52.54 -96.26,35.82" /><path
       inkscape:connector-curvature="0"
       id="path8072"
       style="fill:#aaccff;fill-opacity:1;fill-rule:nonzero;stroke:none"
       d="m 2839.72,3776.98 c -30.3,-26.26 -33.61,-72.19 -7.25,-102.31 26.17,-30.32 72.1,-33.62 102.31,-7.35 30.22,26.27 33.53,72 7.35,102.31 -26.18,30.32 -72.1,33.44 -102.41,7.35" /><path
       inkscape:connector-curvature="0"
       id="path8074"
       style="fill:#aaccff;fill-opacity:1;fill-rule:nonzero;stroke:none"
       d="m 2568.77,3986.39 c -21.49,-33.61 -11.75,-78.62 21.96,-100.1 33.8,-21.87 78.62,-11.95 100.29,21.67 21.68,33.79 11.94,78.63 -21.77,100.3 -33.8,21.67 -78.61,11.94 -100.48,-21.87" /><path
       inkscape:connector-curvature="0"
       id="path8076"
       style="fill:#aaccff;fill-opacity:1;fill-rule:nonzero;stroke:none"
       d="m 2238.67,4112.42 c -11.29,-38.4 10.76,-78.81 49.24,-90.21 38.38,-11.03 78.71,10.83 90.01,49.42 11.38,38.39 -10.76,78.62 -49.23,90.01 -38.39,11.21 -78.81,-10.84 -90.02,-49.22" /><path
       inkscape:connector-curvature="0"
       id="path8078"
       style="fill:#aaccff;fill-opacity:1;fill-rule:nonzero;stroke:none"
       d="m 1881.84,4140.32 c 0,-40.22 32.52,-72.73 72.66,-72.73 40.05,0 72.56,32.51 72.56,72.73 0,40.06 -32.51,72.38 -72.56,72.38 -40.14,0 -72.66,-32.32 -72.66,-72.38" /><path
       inkscape:connector-curvature="0"
       id="path8080"
       style="fill:#aaccff;fill-opacity:1;fill-rule:nonzero;stroke:none"
       d="m 1531.09,4071.63 c 11.2,-38.59 51.61,-60.45 90.09,-49.42 38.3,11.4 60.35,51.81 49.05,90.21 -11.3,38.38 -51.62,60.43 -90.01,49.22 -38.48,-11.39 -60.44,-51.62 -49.13,-90.01" /><path
       inkscape:connector-curvature="0"
       id="path8082"
       style="fill:#aaccff;fill-opacity:1;fill-rule:nonzero;stroke:none"
       d="m 1234.05,3907.96 c 21.58,-33.62 66.59,-43.54 100.2,-21.67 33.8,21.48 43.54,66.49 21.86,100.1 -21.67,33.81 -66.59,43.54 -100.29,21.87 -33.62,-21.67 -43.45,-66.51 -21.77,-100.3" /><path
       inkscape:connector-curvature="0"
       id="path8084"
       style="fill:#aaccff;fill-opacity:1;fill-rule:nonzero;stroke:none"
       d="m 974.125,3667.32 c 30.305,-26.27 76.135,-22.97 102.405,7.35 26.18,30.12 22.87,76.05 -7.26,102.31 -30.4,26.09 -76.227,22.97 -102.411,-7.35 -26.269,-30.31 -22.957,-76.04 7.266,-102.31" /><path
       inkscape:connector-curvature="0"
       id="path8086"
       style="fill:#aaccff;fill-opacity:1;fill-rule:nonzero;stroke:none"
       d="m 798.598,3350.44 c 36.367,-16.53 79.445,-0.54 96.074,35.82 16.621,36.56 0.547,79.54 -35.82,96.26 -36.465,16.72 -79.539,0.55 -96.258,-35.82 -16.621,-36.56 -0.547,-79.54 36.004,-96.26" /><path
       inkscape:connector-curvature="0"
       id="path8088"
       style="fill:#aaccff;fill-opacity:1;fill-rule:nonzero;stroke:none"
       d="m 721.813,3006.93 c 39.675,-5.69 76.503,21.86 82.207,61.54 5.691,39.68 -21.954,76.42 -61.536,82.12 -39.675,5.68 -76.414,-21.87 -82.117,-61.54 -5.695,-39.68 21.863,-76.43 61.446,-82.12" /><path
       inkscape:connector-curvature="0"
       id="path8090"
       style="fill:#aaccff;fill-opacity:1;fill-rule:nonzero;stroke:none"
       d="m 742.484,2653.14 c 39.582,5.69 67.227,42.43 61.536,82.11 -5.704,39.68 -42.532,67.23 -82.207,61.54 -39.583,-5.69 -67.141,-42.43 -61.446,-82.12 5.703,-39.68 42.442,-67.22 82.117,-61.53" /><path
       inkscape:connector-curvature="0"
       id="path8092"
       style="fill:#aaccff;fill-opacity:1;fill-rule:nonzero;stroke:none"
       d="m 858.852,2321.24 c 36.367,16.68 52.441,59.66 35.82,96.03 -16.629,36.56 -59.707,52.54 -96.074,36.02 -36.551,-16.72 -52.625,-59.71 -36.004,-96.27 16.719,-36.32 59.793,-52.49 96.258,-35.78" /><path
       inkscape:connector-curvature="0"
       id="path8094"
       style="fill:#aaccff;fill-opacity:1;fill-rule:nonzero;stroke:none"
       d="m 1069.27,2042.91 c 30.13,26.22 33.44,72.14 7.26,102.32 -26.27,30.3 -72.1,33.56 -102.405,7.33 -30.223,-26.21 -33.535,-72.14 -7.266,-102.31 26.184,-30.3 72.011,-33.57 102.411,-7.34" /><path
       inkscape:connector-curvature="0"
       id="path8096"
       style="fill:#aaccff;fill-opacity:1;fill-rule:nonzero;stroke:none"
       d="m 1356.11,1833.36 c 21.68,33.67 11.94,78.53 -21.86,100.25 -33.61,21.63 -78.62,11.84 -100.2,-21.81 -21.68,-33.67 -11.85,-78.62 21.77,-100.35 33.7,-21.62 78.62,-11.85 100.29,21.91" /><path
       inkscape:connector-curvature="0"
       id="path8098"
       style="fill:#aaccff;fill-opacity:1;fill-rule:nonzero;stroke:none"
       d="m 1670.23,1707.35 c 11.3,38.44 -10.75,78.8 -49.05,90.19 -38.48,11.2 -78.89,-10.85 -90.09,-49.27 -11.31,-38.39 10.65,-78.73 49.13,-90.11 38.39,-11.29 78.71,10.79 90.01,49.19" /><path
       inkscape:connector-curvature="0"
       id="path8100"
       style="fill:#aaccff;fill-opacity:1;fill-rule:nonzero;stroke:none"
       d="m 2027.06,1679.61 c 0,39.94 -32.51,72.51 -72.56,72.51 -40.14,0 -72.66,-32.57 -72.66,-72.51 0,-40.09 32.52,-72.61 72.66,-72.61 40.05,0 72.56,32.52 72.56,72.61" /><path
       inkscape:connector-curvature="0"
       id="path8102"
       style="fill:#aaccff;fill-opacity:1;fill-rule:nonzero;stroke:none"
       d="m 2416.76,1534.08 c -8.44,28.88 -38.66,45.37 -67.59,36.87 -28.75,-8.46 -45.19,-38.76 -36.83,-67.51 8.45,-28.89 38.76,-45.41 67.5,-36.87 29.02,8.45 45.47,38.76 36.92,67.51" /><path
       inkscape:connector-curvature="0"
       id="path8104"
       style="fill:#aaccff;fill-opacity:1;fill-rule:nonzero;stroke:none"
       d="m 2788.3,1709.05 c -16.18,25.2 -49.88,32.51 -75.24,16.34 -25.25,-16.26 -32.51,-49.92 -16.34,-75.22 16.25,-25.3 50.05,-32.66 75.22,-16.4 25.35,16.3 32.69,49.97 16.36,75.28" /><path
       inkscape:connector-curvature="0"
       id="path8106"
       style="fill:#aaccff;fill-opacity:1;fill-rule:nonzero;stroke:none"
       d="m 3083.76,1994.09 c -22.68,19.66 -57.13,17.22 -76.88,-5.46 -19.66,-22.74 -17.08,-57.08 5.62,-76.74 22.67,-19.75 57.11,-17.22 76.77,5.47 19.56,22.77 17.27,57.08 -5.51,76.73" /><path
       inkscape:connector-curvature="0"
       id="path8108"
       style="fill:#aaccff;fill-opacity:1;fill-rule:nonzero;stroke:none"
       d="m 3295.93,2356.29 c -27.37,12.48 -59.7,0.36 -72.19,-26.96 -12.49,-27.18 -0.56,-59.56 26.81,-71.96 27.37,-12.53 59.8,-0.51 72.2,26.86 12.58,27.29 0.56,59.56 -26.82,72.06" /><path
       inkscape:connector-curvature="0"
       id="path8110"
       style="fill:#aaccff;fill-opacity:1;fill-rule:nonzero;stroke:none"
       d="m 3401.64,2754.72 c -29.75,4.23 -57.31,-16.35 -61.63,-46.1 -4.31,-29.77 16.35,-57.32 46.12,-61.72 29.84,-4.24 57.49,16.52 61.63,46.1 4.31,29.76 -16.45,57.5 -46.12,61.72" /><path
       inkscape:connector-curvature="0"
       id="path8112"
       style="fill:#aaccff;fill-opacity:1;fill-rule:nonzero;stroke:none"
       d="m 3386.13,3164.92 c -29.77,-4.42 -50.43,-31.98 -46.12,-61.72 4.32,-29.77 31.88,-50.34 61.63,-46.13 29.67,4.24 50.43,31.79 46.12,61.55 -4.14,29.76 -31.79,50.51 -61.63,46.3" /><path
       inkscape:connector-curvature="0"
       id="path8114"
       style="fill:#aaccff;fill-opacity:1;fill-rule:nonzero;stroke:none"
       d="m 3250.55,3562.43 c -27.37,-12.31 -39.3,-44.64 -26.81,-72.02 12.49,-27.36 44.82,-39.3 72.19,-26.81 27.38,12.3 39.4,44.63 26.82,72.01 -12.4,27.36 -44.83,39.32 -72.2,26.82" /><path
       inkscape:connector-curvature="0"
       id="path8116"
       style="fill:#aaccff;fill-opacity:1;fill-rule:nonzero;stroke:none"
       d="m 3012.5,3891.79 c -22.7,-19.66 -25.28,-54 -5.62,-76.6 19.75,-22.78 54.2,-25.35 76.88,-5.51 22.78,19.66 25.07,54 5.51,76.78 -19.66,22.6 -54.1,24.98 -76.77,5.33" /><path
       inkscape:connector-curvature="0"
       id="path8118"
       style="fill:#aaccff;fill-opacity:1;fill-rule:nonzero;stroke:none"
       d="m 2696.72,4153.55 c -16.17,-25.34 -8.91,-58.96 16.34,-75.12 25.36,-16.34 59.06,-9.01 75.24,16.34 16.33,25.18 8.99,58.98 -16.36,75.14 -25.17,16.34 -58.97,8.82 -75.22,-16.36" /><path
       inkscape:connector-curvature="0"
       id="path8120"
       style="fill:#aaccff;fill-opacity:1;fill-rule:nonzero;stroke:none"
       d="m 2312.34,4316.31 c -8.36,-28.83 8.08,-58.97 36.83,-67.42 28.93,-8.44 59.15,7.9 67.59,36.92 8.55,28.67 -7.9,58.96 -36.92,67.43 -28.74,8.44 -59.05,-8.08 -67.5,-36.93" /><path
       inkscape:connector-curvature="0"
       id="path8122"
       style="fill:#aaccff;fill-opacity:1;fill-rule:nonzero;stroke:none"
       d="m 1900.03,4357.46 c 0,-30.12 24.44,-54.57 54.47,-54.57 30.03,0 54.37,24.45 54.37,54.57 0,29.95 -24.34,54.37 -54.37,54.37 -30.03,0 -54.47,-24.42 -54.47,-54.37" /><path
       inkscape:connector-curvature="0"
       id="path8124"
       style="fill:#aaccff;fill-opacity:1;fill-rule:nonzero;stroke:none"
       d="m 1500.22,4285.81 c 8.45,-29.02 38.76,-45.36 67.5,-36.92 28.85,8.45 45.29,38.59 36.93,67.42 -8.45,28.85 -38.76,45.37 -67.6,36.93 -28.74,-8.47 -45.38,-38.76 -36.83,-67.43" /><path
       inkscape:connector-curvature="0"
       id="path8126"
       style="fill:#aaccff;fill-opacity:1;fill-rule:nonzero;stroke:none"
       d="m 1120.61,4094.77 c 16.26,-25.35 49.97,-32.68 75.23,-16.34 25.26,16.16 32.61,49.78 16.34,75.12 -16.25,25.18 -49.96,32.7 -75.21,16.36 -25.26,-16.16 -32.52,-49.96 -16.36,-75.14" /><path
       inkscape:connector-curvature="0"
       id="path8128"
       style="fill:#aaccff;fill-opacity:1;fill-rule:nonzero;stroke:none"
       d="m 825.141,3809.68 c 22.773,-19.84 57.14,-17.27 76.789,5.51 19.746,22.6 17.175,56.94 -5.422,76.6 -22.684,19.65 -57.129,17.27 -76.785,-5.33 -19.649,-22.78 -17.168,-57.12 5.418,-76.78" /><path
       inkscape:connector-curvature="0"
       id="path8130"
       style="fill:#aaccff;fill-opacity:1;fill-rule:nonzero;stroke:none"
       d="m 613.063,3463.6 c 27.285,-12.49 59.707,-0.55 72.195,26.81 12.402,27.38 0.371,59.71 -26.903,72.02 -27.375,12.5 -59.707,0.54 -72.199,-26.82 -12.488,-27.38 -0.457,-59.71 26.907,-72.01" /><path
       inkscape:connector-curvature="0"
       id="path8132"
       style="fill:#aaccff;fill-opacity:1;fill-rule:nonzero;stroke:none"
       d="m 515.348,3057.07 c 29.746,-4.21 57.304,16.36 61.629,46.13 4.218,29.74 -16.356,57.3 -46.114,61.72 -29.754,4.21 -57.312,-16.54 -61.621,-46.3 -4.324,-29.76 16.438,-57.31 46.106,-61.55" /><path
       inkscape:connector-curvature="0"
       id="path8134"
       style="fill:#aaccff;fill-opacity:1;fill-rule:nonzero;stroke:none"
       d="m 530.863,2646.9 c 29.758,4.4 50.332,31.95 46.114,61.72 -4.325,29.75 -31.883,50.33 -61.629,46.1 -29.668,-4.22 -50.43,-31.96 -46.106,-61.72 4.309,-29.58 31.867,-50.34 61.621,-46.1" /><path
       inkscape:connector-curvature="0"
       id="path8136"
       style="fill:#aaccff;fill-opacity:1;fill-rule:nonzero;stroke:none"
       d="m 658.355,2257.37 c 27.274,12.4 39.305,44.78 26.903,71.96 -12.488,27.32 -44.91,39.44 -72.195,26.96 -27.364,-12.5 -39.395,-44.77 -26.907,-72.06 12.492,-27.37 44.824,-39.39 72.199,-26.86" /><path
       inkscape:connector-curvature="0"
       id="path8138"
       style="fill:#aaccff;fill-opacity:1;fill-rule:nonzero;stroke:none"
       d="m 896.508,1911.89 c 22.597,19.66 25.168,54 5.422,76.74 -19.649,22.68 -54.016,25.12 -76.789,5.46 -22.586,-19.65 -25.067,-53.96 -5.418,-76.73 19.656,-22.69 54.101,-25.22 76.785,-5.47" /><path
       inkscape:connector-curvature="0"
       id="path8140"
       style="fill:#aaccff;fill-opacity:1;fill-rule:nonzero;stroke:none"
       d="m 1212.18,1650.17 c 16.27,25.3 8.92,58.96 -16.34,75.22 -25.26,16.17 -58.97,8.86 -75.23,-16.34 -16.16,-25.31 -8.9,-58.98 16.36,-75.28 25.25,-16.26 58.96,-8.9 75.21,16.4" /><path
       inkscape:connector-curvature="0"
       id="path8142"
       style="fill:#aaccff;fill-opacity:1;fill-rule:nonzero;stroke:none"
       d="m 1604.65,1503.44 c 8.36,28.75 -8.08,59.05 -36.93,67.51 -28.74,8.5 -59.05,-7.99 -67.5,-36.87 -8.55,-28.75 8.09,-59.06 36.83,-67.51 28.84,-8.54 59.15,7.98 67.6,36.87" /><path
       inkscape:connector-curvature="0"
       id="path8144"
       style="fill:#aaccff;fill-opacity:1;fill-rule:nonzero;stroke:none"
       d="m 2008.87,1454.45 c 0,30.08 -24.34,54.36 -54.37,54.36 -30.03,0 -54.47,-24.28 -54.47,-54.36 0,-30.04 24.44,-54.48 54.47,-54.48 30.03,0 54.37,24.44 54.37,54.48" /></g></g><g
   id="g9391"
   transform="matrix(0.06517489,0,0,0.06517489,18.829622,60.99899)"><g
     clip-path="url(#clipPath9397)"
     id="g9393"><path
       inkscape:connector-curvature="0"
       id="path9399"
       style="fill:none;stroke:#1f77b4;stroke-width:40;stroke-linecap:square;stroke-linejoin:round;stroke-miterlimit:10;stroke-dasharray:none;stroke-opacity:1"
       d="m 738.328,2920.32 66.254,-0.58 66.258,-0.69 66.254,-0.84 66.256,-1.01 66.26,-1.22 66.25,-1.48 66.26,-1.77 66.26,-2.14 66.25,-2.58 66.26,-3.11 66.25,-3.75 66.26,-4.52 66.26,-5.43 66.25,-6.55 66.26,-7.88 66.26,-9.47 66.25,-11.38 66.26,-13.66 66.25,-16.38 66.26,-19.61 66.25,-23.45 66.26,-27.98 66.25,-33.31 66.26,-39.54 66.26,-46.79 66.25,-55.12 66.26,-64.63 66.26,-75.33 66.25,-87.16 66.26,-99.99 66.26,-113.5 66.25,-127.22 66.26,-140.45 66.25,-152.23 66.26,-161.37 66.25,-166.55 66.26,-166.44 66.26,-159.99 66.25,-146.755 66.26,-127.231 66.25,-103.05 66.26,-76.911 66.26,-52.015 66.25,-31.254 66.26,-16.285 66.26,-7.153 66.25,-2.558 66.26,-0.715 66.25,-0.148" /><path
       inkscape:connector-curvature="0"
       id="path9401"
       style="fill:none;stroke:#ff7f0e;stroke-width:40;stroke-linecap:square;stroke-linejoin:round;stroke-miterlimit:10;stroke-dasharray:none;stroke-opacity:1"
       d="m 738.328,2911.97 66.254,-2.29 66.258,-2.77 66.254,-3.34 66.256,-4.02 66.26,-4.84 66.25,-5.83 66.26,-7.02 66.26,-8.44 66.25,-10.15 66.26,-12.18 66.25,-14.63 66.26,-17.53 66.26,-20.97 66.25,-25.07 66.26,-29.88 66.26,-35.53 66.25,-42.14 66.26,-49.78 66.25,-58.56 66.26,-68.5 66.25,-79.64 66.26,-91.87 66.25,-105 66.26,-118.66 66.26,-132.29 66.25,-145.1 66.26,-156.03 66.26,-163.86 66.25,-167.19 66.26,-164.8 66.26,-155.82 66.25,-140.103 66.26,-118.578 66.25,-93.301 66.26,-67.254 66.25,-43.617 66.26,-24.918 66.26,-12.223 66.25,-4.992 66.26,-1.637 66.25,-0.41 66.26,-0.078 66.26,-0.008 h 66.25 66.26 66.26 66.25 66.26 66.25" /><path
       inkscape:connector-curvature="0"
       id="path9403"
       style="fill:none;stroke:#2ca02c;stroke-width:40;stroke-linecap:square;stroke-linejoin:round;stroke-miterlimit:10;stroke-dasharray:none;stroke-opacity:1"
       d="m 738.328,2898.13 66.254,-5.14 66.258,-6.18 66.254,-7.43 66.256,-8.95 66.26,-10.75 66.25,-12.91 66.26,-15.48 66.26,-18.55 66.25,-22.19 66.26,-26.49 66.25,-31.56 66.26,-37.51 66.26,-44.42 66.25,-52.41 66.26,-61.55 66.26,-71.88 66.25,-83.37 66.26,-95.92 66.25,-109.25 66.26,-122.98 66.25,-136.45 66.26,-148.79 66.25,-158.89 66.26,-165.45 66.26,-167.11 66.25,-162.72 66.26,-151.581 66.26,-133.891 66.25,-110.91 66.26,-85.047 66.26,-59.426 66.25,-37.125 66.26,-20.277 66.25,-9.426 66.26,-3.605 66.25,-1.094 66.26,-0.25 66.26,-0.043 66.25,-0.004 h 66.26 66.25 66.26 66.26 66.25 66.26 66.26 66.25 66.26 66.25" /><path
       inkscape:connector-curvature="0"
       id="path9405"
       style="fill:none;stroke:#d62728;stroke-width:40;stroke-linecap:square;stroke-linejoin:round;stroke-miterlimit:10;stroke-dasharray:none;stroke-opacity:1"
       d="m 738.328,2878.88 66.254,-9.05 66.258,-10.87 66.254,-13.05 66.256,-15.66 66.26,-18.75 66.25,-22.43 66.26,-26.78 66.26,-31.9 66.25,-37.9 66.26,-44.88 66.25,-52.93 66.26,-62.15 66.26,-72.55 66.25,-84.1 66.26,-96.71 66.26,-110.09 66.25,-123.81 66.26,-137.25 66.25,-149.48 66.26,-159.41 66.25,-165.7 66.26,-167.03 66.25,-162.23 66.26,-150.69 66.26,-132.617 66.25,-109.39 66.26,-83.442 66.26,-57.941 66.25,-35.93 66.26,-19.445 66.26,-8.942 66.25,-3.375 66.26,-1.011 66.25,-0.227 66.26,-0.035 66.25,-0.004 h 66.26 66.26 66.25 66.26 66.25 66.26 66.26 66.25 66.26 66.26 66.25 66.26 66.25" /><path
       inkscape:connector-curvature="0"
       id="path9407"
       style="fill:none;stroke:#9467bd;stroke-width:40;stroke-linecap:square;stroke-linejoin:round;stroke-miterlimit:10;stroke-dasharray:none;stroke-opacity:1"
       d="m 738.328,2854.35 66.254,-13.97 66.258,-16.75 66.254,-20.06 66.256,-23.98 66.26,-28.6 66.25,-34.03 66.26,-40.39 66.26,-47.77 66.25,-56.24 66.26,-65.9 66.25,-76.75 66.26,-88.71 66.26,-101.64 66.25,-115.22 66.26,-128.91 66.26,-142.03 66.25,-153.53 66.26,-162.26 66.25,-166.85 66.26,-166 66.25,-158.71 66.26,-144.64 66.25,-124.422 66.26,-99.832 66.26,-73.672 66.25,-49.152 66.26,-29.051 66.26,-14.843 66.25,-6.368 66.26,-2.215 66.26,-0.597 66.25,-0.121 66.26,-0.016 h 66.25 66.26 66.25 66.26 66.26 66.25 66.26 66.25 66.26 66.26 66.25 66.26 66.26 66.25 66.26 66.25" /><path
       inkscape:connector-curvature="0"
       id="path9409"
       style="fill:none;stroke:#8c564b;stroke-width:40;stroke-linecap:square;stroke-linejoin:round;stroke-miterlimit:10;stroke-dasharray:none;stroke-opacity:1"
       d="m 738.328,2824.72 66.254,-19.84 66.258,-23.72 66.254,-28.3 66.256,-33.69 66.26,-39.98 66.25,-47.29 66.26,-55.7 66.26,-65.29 66.25,-76.06 66.26,-87.96 66.25,-100.85 66.26,-114.39 66.26,-128.1 66.25,-141.27 66.26,-152.91 66.26,-161.84 66.25,-166.71 66.26,-166.23 66.25,-159.34 66.26,-145.672 66.25,-125.777 66.26,-101.387 66.25,-75.226 66.26,-50.524 66.26,-30.101 66.25,-15.524 66.26,-6.738 66.26,-2.375 66.25,-0.653 66.26,-0.132 66.26,-0.02 h 66.25 66.26 66.25 66.26 66.25 66.26 66.26 66.25 66.26 66.25 66.26 66.26 66.25 66.26 66.26 66.25 66.26 66.25" /><path
       inkscape:connector-curvature="0"
       id="path9411"
       style="fill:none;stroke:#e377c2;stroke-width:40;stroke-linecap:square;stroke-linejoin:round;stroke-miterlimit:10;stroke-dasharray:none;stroke-opacity:1"
       d="m 738.328,2790.18 66.254,-26.57 66.258,-31.65 66.254,-37.6 66.256,-44.54 66.26,-52.54 66.25,-61.7 66.26,-72.05 66.26,-83.56 66.25,-96.11 66.26,-109.47 66.25,-123.19 66.26,-136.65 66.26,-148.96 66.25,-159.03 66.26,-165.51 66.26,-167.09 66.25,-162.6 66.26,-151.36 66.25,-133.57 66.26,-110.528 66.25,-84.64 66.26,-59.047 66.25,-36.82 66.26,-20.067 66.26,-9.297 66.25,-3.551 66.26,-1.07 66.26,-0.246 66.25,-0.039 66.26,-0.004 h 66.26 66.25 66.26 66.25 66.26 66.25 66.26 66.26 66.25 66.26 66.25 66.26 66.26 66.25 66.26 66.26 66.25 66.26 66.25" /><path
       inkscape:connector-curvature="0"
       id="path9413"
       style="fill:none;stroke:#7f7f7f;stroke-width:40;stroke-linecap:square;stroke-linejoin:round;stroke-miterlimit:10;stroke-dasharray:none;stroke-opacity:1"
       d="m 738.328,2750.96 66.254,-34.04 66.258,-40.39 66.254,-47.78 66.256,-56.25 66.26,-65.91 66.25,-76.75 66.26,-88.73 66.26,-101.65 66.25,-115.23 66.26,-128.93 66.25,-142.03 66.26,-153.55 66.26,-162.27 66.25,-166.85 66.26,-165.99 66.26,-158.7 66.25,-144.629 66.26,-124.398 66.25,-99.809 66.26,-73.644 66.25,-49.133 66.26,-29.035 66.25,-14.832 66.26,-6.364 66.26,-2.211 66.25,-0.597 66.26,-0.121 66.26,-0.016 h 66.25 66.26 66.26 66.25 66.26 66.25 66.26 66.25 66.26 66.26 66.25 66.26 66.25 66.26 66.26 66.25 66.26 66.26 66.25 66.26 66.25" /><path
       inkscape:connector-curvature="0"
       id="path9415"
       style="fill:none;stroke:#bcbd22;stroke-width:40;stroke-linecap:square;stroke-linejoin:round;stroke-miterlimit:10;stroke-dasharray:none;stroke-opacity:1"
       d="m 738.328,2707.33 66.254,-42.16 66.258,-49.81 66.254,-58.59 66.256,-68.54 66.26,-79.69 66.25,-91.91 66.26,-105.06 66.26,-118.7 66.25,-132.35 66.26,-145.14 66.25,-156.07 66.26,-163.87 66.26,-167.2 66.25,-164.78 66.26,-155.77 66.26,-140.034 66.25,-118.488 66.26,-93.207 66.25,-67.16 66.26,-43.535 66.25,-24.864 66.26,-12.183 66.25,-4.973 66.26,-1.629 66.26,-0.41 66.25,-0.078 66.26,-0.008 h 66.26 66.25 66.26 66.26 66.25 66.26 66.25 66.26 66.25 66.26 66.26 66.25 66.26 66.25 66.26 66.26 66.25 66.26 66.26 66.25 66.26 66.25" /></g></g>
<g
   aria-label="UTILITIES"
   transform="matrix(0.96477258,0,0,-1.0365137,-1.6053396e-6,0)"
   style="font-style:normal;font-weight:normal;font-size:31.0954113px;line-height:1.25;font-family:sans-serif;letter-spacing:0px;word-spacing:0px;fill:#000000;fill-opacity:1;stroke:none;stroke-width:0.77738529"
   id="text9587"><path
     d="m 28.93939,-86.260163 h 6.035364 v 34.845687 q 0,6.946362 4.517034,11.767062 4.554991,4.782741 10.70423,4.782741 3.985618,0 7.401862,-2.125663 3.416243,-2.163621 5.46599,-5.997406 2.087704,-3.833784 2.087704,-8.426734 v -34.845687 h 6.035364 v 34.845687 q 0,6.035364 -2.808911,11.197688 -2.808912,5.162324 -7.705528,8.198985 -4.858658,2.998703 -10.666272,2.998703 -4.327242,0 -8.274902,-1.784039 -3.909701,-1.784038 -6.718613,-4.782741 -2.770953,-3.036661 -4.441117,-7.174112 -1.632205,-4.137451 -1.632205,-8.654484 z"
     style="font-style:normal;font-variant:normal;font-weight:bold;font-stretch:normal;font-size:77.73852539px;font-family:Sawasdee;-inkscape-font-specification:'Sawasdee Bold';stroke-width:0.77738529"
     id="path109"
     inkscape:connector-curvature="0" /><path
     d="m 112.14391,-86.260163 v 5.845573 H 97.719765 v 50.826116 H 91.798276 V -80.41459 H 77.336177 v -5.845573 z"
     style="font-style:normal;font-variant:normal;font-weight:bold;font-stretch:normal;font-size:77.73852539px;font-family:Sawasdee;-inkscape-font-specification:'Sawasdee Bold';stroke-width:0.77738529"
     id="path111"
     inkscape:connector-curvature="0" /><path
     d="m 124.32851,-29.588474 h -6.03536 v -56.671689 h 6.03536 z"
     style="font-style:normal;font-variant:normal;font-weight:bold;font-stretch:normal;font-size:77.73852539px;font-family:Sawasdee;-inkscape-font-specification:'Sawasdee Bold';stroke-width:0.77738529"
     id="path113"
     inkscape:connector-curvature="0" /><path
     d="m 170.03026,-29.588474 h -35.03548 v -56.671689 h 6.03536 v 50.826116 h 29.00012 z"
     style="font-style:normal;font-variant:normal;font-weight:bold;font-stretch:normal;font-size:77.73852539px;font-family:Sawasdee;-inkscape-font-specification:'Sawasdee Bold';stroke-width:0.77738529"
     id="path115"
     inkscape:connector-curvature="0" /><path
     d="m 184.98582,-29.588474 h -6.03537 v -56.671689 h 6.03537 z"
     style="font-style:normal;font-variant:normal;font-weight:bold;font-stretch:normal;font-size:77.73852539px;font-family:Sawasdee;-inkscape-font-specification:'Sawasdee Bold';stroke-width:0.77738529"
     id="path117"
     inkscape:connector-curvature="0" /><path
     d="m 225.98075,-86.260163 v 5.845573 h -14.42414 v 50.826116 h -5.92149 V -80.41459 h -14.4621 v -5.845573 z"
     style="font-style:normal;font-variant:normal;font-weight:bold;font-stretch:normal;font-size:77.73852539px;font-family:Sawasdee;-inkscape-font-specification:'Sawasdee Bold';stroke-width:0.77738529"
     id="path119"
     inkscape:connector-curvature="0" /><path
     d="m 238.16535,-29.588474 h -6.03536 v -56.671689 h 6.03536 z"
     style="font-style:normal;font-variant:normal;font-weight:bold;font-stretch:normal;font-size:77.73852539px;font-family:Sawasdee;-inkscape-font-specification:'Sawasdee Bold';stroke-width:0.77738529"
     id="path121"
     inkscape:connector-curvature="0" /><path
     d="m 281.47572,-65.193326 v 5.845572 h -26.60874 v 23.913707 h 28.81032 v 5.845573 h -34.84568 v -56.671689 h 35.03548 v 5.845573 h -29.00012 v 15.221264 z"
     style="font-style:normal;font-variant:normal;font-weight:bold;font-stretch:normal;font-size:77.73852539px;font-family:Sawasdee;-inkscape-font-specification:'Sawasdee Bold';stroke-width:0.77738529"
     id="path123"
     inkscape:connector-curvature="0" /><path
     d="m 325.62119,-74.606976 -5.65578,1.935872 -0.41754,-1.252623 q -1.21467,-3.416244 -3.87175,-5.200282 -2.65707,-1.784039 -5.80761,-1.784039 -3.68195,0 -5.99741,2.353413 -2.31545,2.315454 -2.31545,5.655781 0,1.784039 0.911,3.226453 0.94895,1.442414 2.50524,2.467287 1.55629,1.024873 3.60604,1.97383 2.04974,0.910998 4.28928,1.859954 2.23954,0.910999 4.47908,1.935872 2.23954,0.986915 4.28928,2.391371 2.04975,1.366497 3.60604,3.074619 1.55629,1.670164 2.46728,4.137451 0.94896,2.429329 0.94896,5.390073 0,5.04845 -2.69504,9.147942 -2.69503,4.061534 -6.98432,6.225155 -4.28928,2.125663 -9.1859,2.125663 -3.22645,0 -6.18719,-1.024873 -2.96075,-1.024873 -5.54191,-3.036661 -2.5432,-2.011788 -4.3652,-5.352115 -1.822,-3.378286 -2.42933,-7.705528 l -0.18979,-1.290581 5.95945,-0.721207 0.18979,1.214664 q 0.4555,3.07462 1.67016,5.465991 1.21467,2.353412 2.92279,3.757868 1.70812,1.366497 3.71991,2.087704 2.01179,0.683249 4.25132,0.683249 5.20029,0 9.03407,-3.264411 3.87174,-3.26441 3.87174,-8.464693 0,-2.808911 -1.51833,-4.934574 -1.48037,-2.125663 -3.87174,-3.454202 -2.35341,-1.366498 -5.23824,-2.543204 -2.88483,-1.214664 -5.80762,-2.505245 -2.88482,-1.290581 -5.27619,-2.884828 -2.35342,-1.594247 -3.87175,-4.137451 -1.48037,-2.581162 -1.48037,-5.959448 0,-5.731698 3.98562,-9.755274 3.98562,-4.061534 10.24873,-4.061534 4.97253,0 9.22386,2.884828 4.25132,2.884828 6.07332,8.123069 z"
     style="font-style:normal;font-variant:normal;font-weight:bold;font-stretch:normal;font-size:77.73852539px;font-family:Sawasdee;-inkscape-font-specification:'Sawasdee Bold';stroke-width:0.77738529"
     id="path125"
     inkscape:connector-curvature="0" /></g>

<g
   aria-label="XP
CS"
   transform="matrix(2.756635,0,0,-1.2911389,-303.01955,-148.64676)"
   style="font-style:normal;font-variant:normal;font-weight:bold;font-stretch:normal;font-size:100px;line-height:0.80000001;font-family:'Noto Sans Mono CJK TC';-inkscape-font-specification:'Noto Sans Mono CJK TC Bold';letter-spacing:0px;word-spacing:0px;fill:#000000;fill-opacity:0.69565219;stroke:none;stroke-width:0.75"
   id="text924"><path
     d="m 124.0501,-292.00876 h 14.7 l 4.6,-16.2 c 1.1,-3.8 2.4,-8.7 3.5,-13.2 h 0.4 c 1.4,4.5 2.3,9.4 3.6,13.2 l 5,16.2 h 15.6 l -14.2,-37.5 14,-36.8 h -14.6 l -4.4,15.2 c -0.9,3.5 -2.3,8 -3.6,12.5 h -0.4 c -1.5,-4.5 -2.7,-9 -3.7,-12.5 l -4.7,-15.2 h -15.6 l 13.8,35.9 z"
     style="font-style:normal;font-variant:normal;font-weight:bold;font-stretch:normal;font-size:100px;line-height:0.80000001;font-family:'Noto Sans Mono CJK TC';-inkscape-font-specification:'Noto Sans Mono CJK TC Bold';stroke-width:0.75;fill:#000000;fill-opacity:0.69565219"
     id="path928"
     inkscape:connector-curvature="0" /><path
     d="m 177.54991,-292.00876 h 14.8 v -26.4 h 3.6 c 14.8,0 25,-7.7 25,-24.7 0,-17.5 -10.2,-23.2 -25,-23.2 h -18.4 z m 14.8,-38.2 v -24.3 h 2.5 c 8.1,0 11.5,2.9 11.5,11.4 0,8.5 -3.4,12.9 -11.5,12.9 z"
     style="font-style:normal;font-variant:normal;font-weight:bold;font-stretch:normal;font-size:100px;line-height:0.80000001;font-family:'Noto Sans Mono CJK TC';-inkscape-font-specification:'Noto Sans Mono CJK TC Bold';stroke-width:0.75;fill:#000000;fill-opacity:0.69565219"
     id="path930"
     inkscape:connector-curvature="0" /><path
     d="m 153.5501,-210.80876 c 6.8,0 13.2,-2.9 18.1,-8.9 l -8.4,-8.9 c -2.3,3.2 -5,5 -8.3,5 -7,0 -13,-6.7 -13,-25.7 0,-18.6 6.3,-25.5 12.3,-25.5 3.5,0 5.7,1.8 8.2,4.7 l 8.4,-9.2 c -4,-4.4 -9.7,-8.2 -17.2,-8.2 -14.3,0 -26.9,11.6 -26.9,38.8 0,27.3 12.6,37.9 26.8,37.9 z"
     style="font-style:normal;font-variant:normal;font-weight:bold;font-stretch:normal;font-size:100px;line-height:0.80000001;font-family:'Noto Sans Mono CJK TC';-inkscape-font-specification:'Noto Sans Mono CJK TC Bold';stroke-width:0.75;fill:#000000;fill-opacity:0.69565219"
     id="path932"
     inkscape:connector-curvature="0" /><path
     d="m 197.34991,-210.80876 c 13.5,0 22.1,-9.6 22.1,-21.3 0,-10.8 -4.9,-15.7 -11.6,-20.4 l -6,-4.3 c -6.6,-4.7 -9.1,-6.5 -9.1,-11.5 0,-4.1 2.9,-6.5 6.3,-6.5 4.3,0 7.2,2.3 11.3,6.1 l 7.7,-9.3 c -5.7,-6 -11.7,-9.5 -19.1,-9.5 -12.6,0 -21.1,9 -21.1,20.3 0,10.5 5.4,15.9 11.8,20.3 l 6.4,4.4 c 5.6,3.6 8.2,7 8.2,12.5 0,3.9 -2.7,6.4 -6.9,6.4 -4.1,0 -8.5,-3 -12.4,-7.9 l -9.1,9.9 c 6.1,7 13.7,10.8 21.5,10.8 z"
     style="font-style:normal;font-variant:normal;font-weight:bold;font-stretch:normal;font-size:100px;line-height:0.80000001;font-family:'Noto Sans Mono CJK TC';-inkscape-font-specification:'Noto Sans Mono CJK TC Bold';stroke-width:0.75;fill:#000000;fill-opacity:0.69565219"
     id="path934"
     inkscape:connector-curvature="0" /></g></g></svg>