<?xml version="1.0" encoding="utf-8"?>
<!-- Generator: Adobe Illustrator 24.0.1, SVG Export Plug-In . SVG Version: 6.00 Build 0)  -->
<svg version="1.1" id="Layer_1" xmlns="http://www.w3.org/2000/svg" xmlns:xlink="http://www.w3.org/1999/xlink" x="0px" y="0px"
	 viewBox="0 0 64 64" style="enable-background:new 0 0 64 64;" xml:space="preserve">
<style type="text/css">
	.st0{fill-rule:evenodd;clip-rule:evenodd;fill:url(#SVGID_1_);}
</style>
<g>
	<g>
		<radialGradient id="SVGID_1_" cx="32" cy="32" r="31.7587" gradientUnits="userSpaceOnUse">
			<stop  offset="0.1564" style="stop-color:#00BAD9"/>
			<stop  offset="0.8575" style="stop-color:#007BC2"/>
		</radialGradient>
		<path class="st0" d="M30.4,38.7v7.64c0,1.1-0.86,2.01-2.01,2.23v5.31l0,0c0,0.31-0.24,0.56-0.53,0.56c-0.29,0-0.53-0.25-0.53-0.56
			v-5.31c-1.15-0.22-2.01-1.13-2.01-2.23V38.7c0-1.26,1.13-2.28,2.54-2.28C29.26,36.42,30.4,37.44,30.4,38.7L30.4,38.7z M3.64,13.01
			L3.64,13.01v5.13c1.1,0.25,1.92,1.14,1.92,2.21v11.83c0,1.07-0.82,1.97-1.92,2.21v4.51l0,0c0,0.31-0.24,0.56-0.53,0.56
			c-0.29,0-0.53-0.25-0.53-0.56v-4.47c-1.19-0.19-2.1-1.12-2.1-2.25V20.36c0-1.13,0.91-2.06,2.1-2.25v-5.1
			c0-0.31,0.24-0.56,0.53-0.56C3.4,12.46,3.64,12.7,3.64,13.01L3.64,13.01z M60.98,14.64c-0.29,0-0.53,0.25-0.53,0.56v5.02
			c-1.15,0.22-2.01,1.13-2.01,2.23v15.45c0,1.1,0.86,2.01,2.01,2.23v4.83c0,0.31,0.24,0.56,0.53,0.56c0.29,0,0.53-0.25,0.53-0.56
			l0,0v-4.83c1.15-0.22,2.01-1.13,2.01-2.23V22.44c0-1.1-0.86-2.01-2.01-2.23v-5.02l0,0C61.51,14.89,61.27,14.64,60.98,14.64
			L60.98,14.64z M52.7,7.42c-0.29,0-0.53,0.25-0.53,0.55v5.4c-1.15,0.22-2.01,1.13-2.01,2.23v6.53c0,1.26,1.14,2.28,2.54,2.28
			c1.4,0,2.54-1.02,2.54-2.28v-6.53c0-1.1-0.86-2.01-2.01-2.23v-5.4l0,0C53.23,7.67,52.99,7.42,52.7,7.42L52.7,7.42z M44.42,2.1
			c-0.29,0-0.53,0.25-0.53,0.56v5.65c-1.15,0.22-2.01,1.13-2.01,2.23v16.1c0,1.26,1.13,2.28,2.53,2.28c1.4,0,2.54-1.02,2.54-2.28
			v-16.1c0-1.1-0.86-2.01-2.01-2.23V2.66h0C44.95,2.35,44.71,2.1,44.42,2.1L44.42,2.1z M36.14,0c-0.29,0-0.53,0.25-0.53,0.56V5.9
			c-1.15,0.22-2.01,1.13-2.01,2.23v28.41c0,1.26,1.14,2.28,2.54,2.28s2.54-1.02,2.54-2.28V8.13c0-1.1-0.86-2.01-2.01-2.23V0.56l0,0
			C36.67,0.25,36.43,0,36.14,0L36.14,0z M27.86,0.37c-0.29,0-0.53,0.25-0.53,0.56v5.78c-1.15,0.22-2.01,1.13-2.01,2.23v21.96
			c0,1.26,1.13,2.28,2.54,2.28c1.4,0,2.54-1.02,2.54-2.28V8.94c0-1.1-0.86-2.01-2.01-2.23V0.92l0,0
			C28.39,0.62,28.15,0.37,27.86,0.37L27.86,0.37z M19.58,2.63c-0.29,0-0.53,0.25-0.53,0.56v5.66c-1.15,0.22-2.01,1.13-2.01,2.23
			v17.57c0,1.26,1.14,2.28,2.54,2.28c1.4,0,2.54-1.02,2.54-2.28V11.08c0-1.1-0.86-2.01-2.01-2.23V3.19l0,0
			C20.11,2.88,19.87,2.63,19.58,2.63L19.58,2.63z M11.3,6.44c-0.29,0-0.53,0.25-0.53,0.55v5.44c-1.15,0.22-2.01,1.13-2.01,2.23v9.38
			c0,1.26,1.14,2.28,2.54,2.28c1.4,0,2.54-1.02,2.54-2.28v-9.38c0-1.1-0.86-2.01-2.01-2.23V7l0,0C11.83,6.69,11.59,6.44,11.3,6.44
			L11.3,6.44z M52.17,52.89c0,0.31,0.24,0.55,0.53,0.55c0.29,0,0.53-0.25,0.53-0.55l0,0v-5.26c1.15-0.22,2.01-1.13,2.01-2.23V29.94
			c0-1.26-1.14-2.28-2.54-2.28c-1.4,0-2.54,1.02-2.54,2.28V45.4c0,1.1,0.86,2.01,2.01,2.23V52.89L52.17,52.89z M43.89,63.44
			c0,0.31,0.24,0.56,0.53,0.56c0.29,0,0.53-0.25,0.53-0.56h0v-5.83c1.15-0.22,2.01-1.13,2.01-2.23V34.88c0-1.26-1.14-2.28-2.54-2.28
			c-1.4,0-2.53,1.02-2.53,2.28v20.51c0,1.1,0.86,2.01,2.01,2.23V63.44L43.89,63.44z M35.61,59.59c0,0.31,0.24,0.56,0.53,0.56
			c0.29,0,0.53-0.25,0.53-0.56l0,0v-5.62c1.15-0.22,2.01-1.13,2.01-2.23v-7.39c0-1.26-1.13-2.28-2.54-2.28s-2.54,1.02-2.54,2.28
			v7.39c0,1.1,0.86,2.01,2.01,2.23V59.59L35.61,59.59z M19.05,51.27c0,0.31,0.24,0.56,0.53,0.56c0.29,0,0.53-0.25,0.53-0.56h0V46.1
			c1.15-0.22,2.01-1.13,2.01-2.23v-7.41c0-1.26-1.13-2.28-2.54-2.28c-1.4,0-2.54,1.02-2.54,2.28v7.41c0,1.1,0.86,2.01,2.01,2.23
			V51.27L19.05,51.27z M10.77,46.7c0,0.31,0.24,0.55,0.53,0.55c0.29,0,0.53-0.25,0.53-0.55l0,0v-5.28c1.15-0.22,2.01-1.13,2.01-2.23
			v-7.33c0-1.26-1.14-2.28-2.54-2.28c-1.4,0-2.54,1.02-2.54,2.28v7.33c0,1.1,0.86,2.01,2.01,2.23V46.7L10.77,46.7z"/>
	</g>
</g>
</svg>
