<?xml version="1.0" encoding="utf-8"?>
<!-- Generator: Adobe Illustrator 24.0.1, SVG Export Plug-In . SVG Version: 6.00 Build 0)  -->
<svg version="1.1" id="Layer_1" xmlns="http://www.w3.org/2000/svg" xmlns:xlink="http://www.w3.org/1999/xlink" x="0px" y="0px"
	 viewBox="0 0 800 248.9" style="enable-background:new 0 0 800 248.9;" xml:space="preserve">
<style type="text/css">
	.st0{fill-rule:evenodd;clip-rule:evenodd;fill:url(#SVGID_1_);}
	.st1{fill:#FFFFFF;}
</style>
<g>
	<g>
		<radialGradient id="SVGID_1_" cx="122.588" cy="124.4726" r="123.5339" gradientUnits="userSpaceOnUse">
			<stop  offset="0.1564" style="stop-color:#2EE2FF"/>
			<stop  offset="0.8575" style="stop-color:#0C94E1"/>
		</radialGradient>
		<path class="st0" d="M116.3,150.5v29.7c0,4.3-3.4,7.8-7.8,8.7v20.7l0,0c0,1.2-0.9,2.2-2,2.2c-1.1,0-2-1-2-2.2v-20.7
			c-4.5-0.8-7.8-4.4-7.8-8.7v-29.7c0-4.9,4.4-8.9,9.9-8.9C111.9,141.7,116.3,145.6,116.3,150.5L116.3,150.5z M12.3,50.6L12.3,50.6
			v20c4.3,1,7.5,4.5,7.5,8.6v46c0,4.2-3.2,7.6-7.5,8.6v17.5l0,0c0,1.2-0.9,2.2-2,2.2c-1.1,0-2-1-2-2.2v-17.4
			c-4.6-0.7-8.2-4.4-8.2-8.7v-46c0-4.4,3.5-8,8.2-8.7V50.6c0-1.2,0.9-2.2,2-2.2C11.3,48.4,12.3,49.4,12.3,50.6L12.3,50.6z
			 M235.3,56.9c-1.1,0-2,1-2,2.2v19.5c-4.5,0.8-7.8,4.4-7.8,8.7v60.1c0,4.3,3.4,7.8,7.8,8.7v18.8c0,1.2,0.9,2.2,2,2.2
			c1.1,0,2-1,2-2.2l0,0v-18.8c4.5-0.8,7.8-4.4,7.8-8.7V87.3c0-4.3-3.4-7.8-7.8-8.7V59.1l0,0C237.4,57.9,236.4,56.9,235.3,56.9
			L235.3,56.9z M203.1,28.9c-1.1,0-2,1-2,2.2v21c-4.5,0.8-7.8,4.4-7.8,8.7v25.4c0,4.9,4.4,8.9,9.9,8.9c5.4,0,9.9-4,9.9-8.9V60.7
			c0-4.3-3.4-7.8-7.8-8.7V31l0,0C205.1,29.8,204.2,28.9,203.1,28.9L203.1,28.9z M170.9,8.2c-1.1,0-2,1-2,2.2v22
			c-4.5,0.8-7.8,4.4-7.8,8.7v62.6c0,4.9,4.4,8.9,9.9,8.9c5.4,0,9.9-4,9.9-8.9V41c0-4.3-3.4-7.8-7.8-8.7v-22h0
			C172.9,9.2,172,8.2,170.9,8.2L170.9,8.2z M138.7,0c-1.1,0-2,1-2,2.2v20.8c-4.5,0.8-7.8,4.4-7.8,8.7v110.5c0,4.9,4.4,8.9,9.9,8.9
			c5.4,0,9.9-4,9.9-8.9V31.6c0-4.3-3.4-7.8-7.8-8.7V2.2l0,0C140.7,1,139.8,0,138.7,0L138.7,0z M106.5,1.4c-1.1,0-2,1-2,2.2v22.5
			c-4.5,0.8-7.8,4.4-7.8,8.7v85.4c0,4.9,4.4,8.9,9.9,8.9c5.4,0,9.9-4,9.9-8.9V34.8c0-4.3-3.4-7.8-7.8-8.7V3.6l0,0
			C108.5,2.4,107.6,1.4,106.5,1.4L106.5,1.4z M74.3,10.2c-1.1,0-2,1-2,2.2v22c-4.5,0.8-7.8,4.4-7.8,8.7v68.4c0,4.9,4.4,8.9,9.9,8.9
			c5.4,0,9.9-4,9.9-8.9V43.1c0-4.3-3.4-7.8-7.8-8.7v-22l0,0C76.3,11.2,75.4,10.2,74.3,10.2L74.3,10.2z M42.1,25.1c-1.1,0-2,1-2,2.2
			v21.1c-4.5,0.8-7.8,4.4-7.8,8.7v36.5c0,4.9,4.4,8.9,9.9,8.9c5.4,0,9.9-4,9.9-8.9V57.1c0-4.3-3.4-7.8-7.8-8.7V27.2l0,0
			C44.1,26,43.2,25.1,42.1,25.1L42.1,25.1z M201.1,205.7c0,1.2,0.9,2.2,2,2.2c1.1,0,2-1,2-2.2l0,0v-20.5c4.5-0.8,7.8-4.4,7.8-8.7
			v-60.1c0-4.9-4.4-8.9-9.9-8.9c-5.4,0-9.9,4-9.9,8.9v60.1c0,4.3,3.4,7.8,7.8,8.7V205.7L201.1,205.7z M168.9,246.8
			c0,1.2,0.9,2.2,2,2.2c1.1,0,2-1,2-2.2h0v-22.7c4.5-0.8,7.8-4.4,7.8-8.7v-79.8c0-4.9-4.4-8.9-9.9-8.9c-5.4,0-9.9,4-9.9,8.9v79.8
			c0,4.3,3.4,7.8,7.8,8.7V246.8L168.9,246.8z M136.6,231.8c0,1.2,0.9,2.2,2,2.2c1.1,0,2-1,2-2.2l0,0v-21.9c4.5-0.8,7.8-4.4,7.8-8.7
			v-28.7c0-4.9-4.4-8.9-9.9-8.9c-5.4,0-9.9,4-9.9,8.9v28.7c0,4.3,3.4,7.8,7.8,8.7V231.8L136.6,231.8z M72.2,199.4
			c0,1.2,0.9,2.2,2,2.2c1.1,0,2-1,2-2.2h0v-20.1c4.5-0.8,7.8-4.4,7.8-8.7v-28.8c0-4.9-4.4-8.9-9.9-8.9c-5.4,0-9.9,4-9.9,8.9v28.8
			c0,4.3,3.4,7.8,7.8,8.7V199.4L72.2,199.4z M40,181.7c0,1.2,0.9,2.2,2,2.2c1.1,0,2-1,2-2.2l0,0v-20.5c4.5-0.8,7.8-4.4,7.8-8.7
			v-28.5c0-4.9-4.4-8.9-9.9-8.9c-5.4,0-9.9,4-9.9,8.9v28.5c0,4.3,3.4,7.8,7.8,8.7V181.7L40,181.7z"/>
	</g>
	<g>
		<path class="st1" d="M368.4,109.9h-40.3c-3.7,0-5.6-2-5.6-6v-3.7c0-1.9,0.4-3.3,1.3-4.4c0.9-1.1,2.3-1.6,4.4-1.6H382
			c1.6,0,2.4-0.8,2.4-2.4V81.7c0-1.6-0.8-2.4-2.4-2.4h-56.9c-6.5,0-11.3,1.6-14.4,4.8c-3.1,3.2-4.6,7.4-4.6,12.7v7.8
			c0,5.9,1.6,10.5,4.7,13.7c3.2,3.2,7.8,4.8,14.1,4.8h40.3c3.7,0,5.6,2,5.6,6v4.4c0,1.9-0.4,3.3-1.3,4.4c-0.9,1.1-2.3,1.6-4.4,1.6
			h-56.4c-1.6,0-2.5,0.8-2.5,2.4v10.2c0,1.6,0.8,2.4,2.5,2.4h59.5c6.5,0,11.3-1.6,14.4-4.8c3.1-3.2,4.6-7.4,4.6-12.7v-8.6
			c0-5.9-1.6-10.5-4.7-13.7C379.3,111.5,374.6,109.9,368.4,109.9z"/>
		<path class="st1" d="M413.5,79.3h-11.6c-1.6,0-2.5,0.8-2.5,2.4v70.5c0,1.6,0.8,2.4,2.5,2.4h11.6c1.6,0,2.4-0.8,2.4-2.4V81.7
			C415.9,80.1,415.1,79.3,413.5,79.3z"/>
		<path class="st1" d="M534.8,79.3h-11.5c-1.6,0-2.9,0.1-4,0.3c-1.1,0.2-2.1,0.6-3,1.2c-0.9,0.6-1.6,1.4-2.3,2.5
			c-0.7,1-1.4,2.4-2.1,4.1l-22.3,51.6c-0.3,0.6-0.8,1-1.5,1h-1.3c-0.7,0-1.2-0.3-1.5-1l-22.3-51.6c-0.7-1.7-1.4-3.1-2.1-4.1
			c-0.7-1-1.5-1.9-2.3-2.5c-0.9-0.6-1.9-1-3-1.2c-1.1-0.2-2.5-0.3-4.1-0.3h-11.7c-3.8,0-6.3,0.8-7.6,2.5c-1.3,1.7-1.9,4.6-1.9,8.6
			v61.7c0,1.6,0.8,2.4,2.5,2.4h11c1.6,0,2.4-0.8,2.4-2.4V96.1c0-0.7,0.3-1.1,0.9-1.1h1c0.7,0,1.2,0.3,1.4,0.9l21.7,48.1
			c0.9,1.9,1.7,3.6,2.6,4.9c0.9,1.3,1.9,2.4,2.9,3.3c1,0.9,2.2,1.5,3.5,1.8c1.3,0.4,2.9,0.5,4.7,0.5h5.2c1.8,0,3.3-0.2,4.7-0.5
			c1.3-0.4,2.5-1,3.5-1.8c1-0.9,2-2,2.9-3.3c0.9-1.3,1.8-3,2.6-4.9l21.7-48.1c0.2-0.6,0.7-0.9,1.4-0.9h1c0.6,0,0.9,0.4,0.9,1.1v56.1
			c0,1.6,0.8,2.4,2.4,2.4h11c1.6,0,2.5-0.8,2.5-2.4V90.5c0-4.1-0.6-7-1.9-8.6C541,80.2,538.5,79.3,534.8,79.3z"/>
		<path class="st1" d="M644.1,85.8c-2.4-2.3-5.5-3.9-9.3-4.9c-3.8-1-8.5-1.6-13.9-1.6h-33.2c-5.4,0-10.1,0.5-13.9,1.6
			c-3.8,1-6.9,2.7-9.3,4.9c-2.4,2.3-4.2,5.2-5.3,8.8c-1.1,3.6-1.7,7.9-1.7,13.1v18.5c0,5.2,0.6,9.5,1.7,13.2
			c1.1,3.6,2.9,6.6,5.3,8.8c2.4,2.3,5.5,3.9,9.3,4.9c3.8,1,8.4,1.5,13.9,1.5h33.2c5.4,0,10.1-0.5,13.9-1.5c3.8-1,6.9-2.6,9.3-4.9
			c2.4-2.3,4.1-5.2,5.2-8.8c1.1-3.6,1.6-8,1.6-13.2v-18.5c0-5.2-0.5-9.5-1.6-13.1C648.2,91,646.5,88.1,644.1,85.8z M634.5,125
			c0,2.8-0.2,5.1-0.7,7c-0.5,1.9-1.2,3.4-2.3,4.5c-1.1,1.1-2.5,1.9-4.4,2.4c-1.8,0.5-4.1,0.7-6.9,0.7h-31.9c-2.8,0-5.1-0.2-6.9-0.7
			c-1.8-0.5-3.3-1.3-4.4-2.4c-1.1-1.1-1.8-2.6-2.3-4.5c-0.5-1.9-0.7-4.2-0.7-7v-16.1c0-2.8,0.2-5.1,0.7-7c0.5-1.9,1.2-3.4,2.3-4.5
			c1.1-1.1,2.5-1.9,4.4-2.4c1.8-0.5,4.1-0.7,6.9-0.7h31.9c2.8,0,5.1,0.2,6.9,0.7c1.8,0.5,3.3,1.3,4.4,2.4c1.1,1.1,1.8,2.6,2.3,4.5
			c0.5,1.9,0.7,4.2,0.7,7V125z"/>
		<path class="st1" d="M674.6,139.5h-10.5c-1.6,0-2.5,0.8-2.5,2.4v10.3c0,1.6,0.8,2.4,2.5,2.4h10.5c1.6,0,2.4-0.8,2.4-2.4v-10.3
			C677,140.3,676.2,139.5,674.6,139.5z"/>
		<path class="st1" d="M703.4,73.7h-10.5c-1.6,0-2.5,0.8-2.5,2.4v10.2c0,1.6,0.8,2.5,2.5,2.5h10.5c1.6,0,2.4-0.8,2.4-2.5V76.1
			C705.8,74.5,705,73.7,703.4,73.7z"/>
		<path class="st1" d="M703.4,95.6h-10.5c-1.6,0-2.4,0.8-2.4,2.5v54.1c0,1.6,0.8,2.4,2.4,2.4h10.5c1.6,0,2.4-0.8,2.4-2.4V98
			C705.8,96.4,705,95.6,703.4,95.6z"/>
		<path class="st1" d="M798.7,107.4c-0.9-2.8-2.3-5-4.2-6.8c-2-1.8-4.6-3-7.9-3.9c-1.4-0.3-2.9-0.6-4.6-0.8V75.8
			c0-1.1-0.9-1.9-1.9-1.9c-1.1,0-1.9,0.9-1.9,1.9v19.8c-1.2-0.1-2.4-0.1-3.6-0.1H744c-0.8,0-1.6,0-2.4,0V75.8c0-1.1-0.9-1.9-1.9-1.9
			h0c-1.1,0-1.9,0.9-1.9,1.9v20c-2.2,0.2-4.2,0.5-5.9,1c-3.3,0.8-5.9,2.1-7.8,3.9c-2,1.8-3.4,4-4.2,6.8c-0.9,2.8-1.3,6.1-1.3,9.9
			v15.5c0,3.9,0.4,7.2,1.3,9.9c0.9,2.8,2.3,5,4.2,6.8c2,1.8,4.6,3,7.8,3.8c3.3,0.8,7.3,1.2,12.2,1.2h30.4c4.8,0,8.8-0.4,12.1-1.2
			c3.3-0.8,5.9-2.1,7.9-3.8c2-1.8,3.4-4,4.2-6.8c0.9-2.8,1.3-6.1,1.3-9.9v-15.5C800,113.5,799.6,110.2,798.7,107.4z M784.7,130.1
			c0,2.3-0.2,4.2-0.5,5.7c-0.4,1.5-1,2.7-1.9,3.6c-0.9,0.9-2.1,1.5-3.6,1.9c-1.5,0.4-3.4,0.6-5.8,0.6h-27.4c-2.3,0-4.2-0.2-5.7-0.6
			c-1.5-0.4-2.7-1-3.6-1.9c-0.9-0.9-1.5-2.1-1.9-3.6c-0.4-1.5-0.5-3.4-0.5-5.7v-10.2c0-2.2,0.2-4.1,0.5-5.6c0.4-1.5,1-2.7,1.9-3.7
			c0.9-0.9,2.1-1.6,3.6-1.9c1.5-0.4,3.4-0.5,5.7-0.5h27.4c2.4,0,4.3,0.2,5.8,0.5c1.5,0.4,2.7,1,3.6,1.9c0.9,0.9,1.5,2.1,1.9,3.7
			c0.4,1.5,0.5,3.4,0.5,5.6V130.1z"/>
	</g>
</g>
</svg>
