<?xml version="1.0" encoding="UTF-8" standalone="no"?>
<svg width="401.63095pt" height="90.549332pt" viewBox="0 0 401.63095 90.549332" xmlns="http://www.w3.org/2000/svg">
    <path
       style="fill:#ffffff;"
       d="m 127.79004,0.33399863 c -3.54491,-0.0735803 -6.85973,1.81176787 -9.58594,4.74902337 -3.6115,3.8891225 -5.28332,9.192944 -5.43896,14.594238 -1.19129,-0.353313 -2.43658,-0.580173 -3.76172,-0.500976 -1.94856,0.116457 -3.91449,0.799519 -5.625,1.936523 a 4.7438816,4.7438816 0 0 0 -0.002,0.0015 c -2.98463,1.985506 -4.713926,5.216382 -5.200203,8.323242 -0.48627,3.10686 0.02115,6.162505 1.034182,9.016113 2.026021,5.707216 5.946131,10.990387 11.898931,13.132324 a 4.7438816,4.7438816 0 0 0 0.006,0.0015 c 1.20859,0.432931 2.41668,0.529435 3.65332,0.479004 -0.99825,3.008238 -1.50687,6.413928 0.0908,9.780762 1.68726,3.555609 5.66538,5.717013 10.16309,6.191895 a 4.7438816,4.7438816 0 0 0 10e-4,0 c 6.6319,0.698856 11.94411,-0.748251 15.62548,0.105468 7.25041,1.691025 14.39043,-0.268968 18.26075,-5.503418 2.15162,-2.909981 2.79758,-6.679719 2.03173,-10.54248 0.34373,-0.07011 0.79967,-0.04335 1.08692,-0.136231 1.77781,-0.574854 3.02373,-1.360608 3.79248,-1.763672 a 4.7438816,4.7438816 0 0 0 0.003,-0.0015 c 5.51895,-2.898937 8.52195,-8.609688 9.68115,-14.490234 0.5796,-2.940273 0.63983,-6.039741 -0.50537,-9.049804 -1.1452,-3.010065 -3.91034,-5.794933 -7.46631,-6.777833 a 4.7438816,4.7438816 0 0 0 -0.001,0 c -0.98943,-0.273261 -2.00316,-0.419368 -3.00439,-0.433594 -1.25508,-0.01783 -2.43055,0.224055 -3.56397,0.563965 0.20459,-3.345688 -0.14468,-6.72985 -1.41357,-9.851074 -1.43439,-3.5282999 -4.05931,-6.8318853 -7.96875,-8.4843748 -1.90494,-0.80533983 -3.85869,-1.23481488 -5.80078,-1.15429698 -3.89939,0.16166715 -6.93528,2.63878628 -8.80225,5.53124998 -0.1419,-0.2104627 -0.21985,-0.4603753 -0.3706,-0.665039 -1.93446,-2.6262436 -4.97697,-4.9725123 -8.81836,-5.05224608 z" />
    <path
       style="fill:#ffca19;"
       d="m 247.71972,71.899917 c -0.5625,1.71875 -1.35156,3.671875 -2.37109,5.84375 -0.98047,2.179687 -2.36719,4.058594 -4.16016,5.636718 -1.7539,1.617188 -4.08984,2.425782 -7.0039,2.425782 -1.65235,0 -3.03907,-0.230469 -4.16407,-0.683594 l -0.0508,-5.375 c 0.98438,0.246094 1.85938,0.367188 2.63281,0.367188 2.8125,0 4.98438,-0.859376 6.53125,-2.578126 1.54297,-1.6875 2.82813,-4.214843 3.84766,-7.585937 l 2.31641,-7.585937 -17.91016,-56.5703132 h 6.375 L 247.98533,53.146011 261.52048,5.7944478 h 6.26953 z m -46.24609,-8.007813 c -6.4961,0 -11.41016,-2.652343 -14.75,-7.953125 v 28.761719 h -5.84766 V 5.7944478 h 5.42578 l 0.32032,7.7421872 c 3.19531,-5.8593742 8.10937,-8.7929682 14.74609,-8.7929682 5.79297,0 10.28906,2.035156 13.48437,6.1093752 3.19532,4.070312 4.84375,10.691406 4.94922,19.855469 v 6.269531 c 0,9.199219 -1.59375,15.992187 -4.78906,20.382812 -3.19922,4.355469 -7.71094,6.53125 -13.53906,6.53125 z m -1.52735,-53.566406 c -3.58203,0 -6.42968,0.949219 -8.53125,2.84375 -2.07421,1.898437 -3.63671,4.089844 -4.6914,6.582031 v 30.023438 c 2.66797,5.757812 7.11328,8.640625 13.32812,8.640625 8.98828,0 13.625,-6.726563 13.90625,-20.175781 v -6.582032 c 0,-14.222656 -4.67187,-21.332031 -14.01172,-21.332031 z m 0,0" />
    <path
       style="fill:#3378b3;"
       d="m 391.04003,48.774917 c 0,-2.457032 -1.01953,-4.601563 -3.05468,-6.421875 -2,-1.828125 -5.46094,-3.847657 -10.37891,-6.058594 -4.91016,-2.25 -8.75781,-4.441406 -11.53516,-6.585937 -2.76953,-2.175782 -4.21093,-5.285157 -4.3164,-9.324219 v -0.472657 c 0,-4.285156 1.52734,-7.882812 4.58203,-10.7968742 3.05469,-2.914063 7.19922,-4.371094 12.42969,-4.371094 5.58593,0 9.9375,1.5625 13.0625,4.6875 3.16015,3.0859372 4.74218,7.0742182 4.74218,11.9531252 h -5.84765 c 0,-2.914063 -1.03516,-5.492188 -3.10547,-7.742188 -2.07422,-2.28125 -5.02344,-3.421875 -8.85156,-3.421875 -3.96485,0 -6.82813,0.984375 -8.58203,2.949219 -1.72266,1.96875 -2.58204,4.144531 -2.58204,6.53125 0,2.316406 0.80469,4.214844 2.42188,5.691406 1.64844,1.472657 4.95312,3.386719 9.90234,5.738281 5.23438,2.285157 9.35938,4.601563 12.37891,6.953126 3.05469,2.351562 4.58203,5.792968 4.58203,10.324218 0,4.707032 -1.61719,8.460938 -4.84375,11.269532 -3.23437,2.777343 -7.55469,4.164062 -12.96094,4.164062 -6.14453,0 -10.83203,-1.652344 -14.0625,-4.949219 -3.23047,-3.304687 -4.84375,-7.183593 -4.84375,-11.644531 h 5.84375 c 0.21485,4.460938 1.70313,7.425781 4.47657,8.902344 2.80859,1.472656 5.67187,2.214844 8.58593,2.214844 3.89844,0 6.86719,-0.933594 8.90235,-2.792969 2.03515,-1.898438 3.05468,-4.164063 3.05468,-6.796875 z m -49.77343,14.011718 -0.10547,-6.847656 c -3.16016,5.269532 -8.16406,7.902344 -15.01563,7.902344 -4.70312,0 -8.51172,-1.652344 -11.42578,-4.949219 -2.8789,-3.304687 -4.32031,-8.835937 -4.32031,-16.597656 V 5.7944478 h 5.84375 V 42.716323 c 0.0391,5.902344 1.10937,9.957031 3.21484,12.167969 2.10938,2.214843 4.58594,3.320312 7.42969,3.320312 4.03516,0 7.17969,-1 9.42578,-3.003906 2.2461,-2.035156 3.82813,-4.632813 4.74219,-7.792969 V 5.7944478 h 5.84375 V 62.786635 Z M 296.60253,10.903823 c -3.41015,0 -6.17968,1.144531 -8.32812,3.421875 -2.10156,2.285156 -3.59766,5.238281 -4.47656,8.851563 V 62.786635 H 277.9541 V 5.7944478 h 5.6875 l 0.15625,8.5312502 c 2.74218,-6.3867192 7.09375,-9.5820312 13.0664,-9.5820312 1.4375,0 2.61328,0.207031 3.52735,0.628906 l -0.16016,5.9023442 c -1.12109,-0.246094 -2.33203,-0.371094 -3.62891,-0.371094 z M 87.387695,62.786635 c -0.566406,-1.753906 -0.929687,-4.390624 -1.105469,-7.902343 -1.476562,2.355469 -3.53125,4.441406 -6.164062,6.269531 -2.601562,1.828125 -5.777344,2.738281 -9.535156,2.738281 -4.703125,0 -8.480469,-1.351562 -11.324219,-4.054687 -2.84375,-2.703125 -4.265625,-6.722656 -4.265625,-12.0625 0,-5.265625 1.808594,-9.621094 5.425781,-13.0625 3.617188,-3.441406 9.003907,-5.164063 16.167969,-5.164063 h 9.640625 v -7.949219 c 0,-7.585937 -3.96875,-11.378906 -11.902344,-11.378906 -3.652343,0 -6.636719,1.054688 -8.953125,3.160156 -2.285156,2.109376 -3.429687,4.828126 -3.429687,8.164063 l -5.84375,-0.05078 c 0,-4.390625 1.6875,-8.273438 5.058593,-11.6445322 3.402344,-3.402343 7.882813,-5.105468 13.425782,-5.105468 5.128906,0 9.324218,1.28125 12.589844,3.84375 3.265624,2.5625002 4.898437,6.9335942 4.898437,13.1171872 v 28.070313 c 0,5.550781 0.496094,9.65625 1.476563,12.328125 v 0.683593 z M 71.266602,58.149917 c 3.722656,0 6.867187,-0.945313 9.429687,-2.84375 2.597656,-1.929688 4.441406,-4.230469 5.53125,-6.898438 v -13.90625 h -9.269531 c -5.300782,0.07031 -9.324219,1.265625 -12.0625,3.582032 -2.707032,2.285156 -4.058594,5.355468 -4.058594,9.21875 0,7.230468 3.480469,10.847656 10.429688,10.847656 z M 25.34082,63.892104 c -6.5,0 -11.417968,-2.652343 -14.75,-7.953125 V 84.700698 H 4.7431641 V 5.7944478 h 5.4257809 l 0.3125,7.7421872 c 3.199219,-5.8593742 8.113281,-8.7929682 14.75,-8.7929682 5.796875,0 10.289063,2.035156 13.484375,6.1093752 3.195313,4.070312 4.847656,10.691406 4.953125,19.855469 v 6.269531 c 0,9.199219 -1.601562,15.992187 -4.796875,20.382812 -3.191406,4.355469 -7.703125,6.53125 -13.53125,6.53125 z M 23.80957,10.325698 c -3.582031,0 -6.425781,0.949219 -8.53125,2.84375 -2.070312,1.898437 -3.632812,4.089844 -4.6875,6.582031 v 30.023438 c 2.667969,5.757812 7.109375,8.640625 13.324219,8.640625 8.992187,0 13.625,-6.726563 13.90625,-20.175781 v -6.582032 c 0,-14.222656 -4.671875,-21.332031 -14.011719,-21.332031 z m 0,0" />
    <path
       style="fill:#000000;"
       d="m 125.5205,63.321792 c -14.13281,-1.492188 -3.30078,-17.878907 3.27344,-23.363281 8.68359,-7.242188 17.77344,-0.8125 23.99609,6.230468 9.3086,10.535156 0.52735,20.039063 -11.0625,17.335938 -5.27734,-1.226563 -10.83203,0.363281 -16.20703,-0.203125 z M 112.71582,47.122573 c -7.81641,-2.8125 -14.039062,-17.183594 -6.71094,-22.058594 8.71484,-5.792968 18.40625,11.464844 12.44141,20.4375 -1.31641,1.972656 -4.16016,2.183594 -5.73047,1.621094 z m 44.83984,0.08984 c -9.25,-6.589844 -1.05859,-25.460938 8.71484,-22.761719 8.875,2.453125 4.22657,17.933594 -2.65234,21.546875 -1.84766,0.96875 -4.26172,2.496094 -6.0625,1.214844 z M 124.61425,32.485854 c -9.5,-2.777343 -8.67578,-17.992187 -2.93359,-24.1757812 11.48828,-12.378906 19.50781,14.1953122 11.21875,22.0820312 -2.23047,2.117188 -5.49219,2.910157 -8.28516,2.09375 z m 25.1211,-26.4414062 c 10.15625,4.2929692 8.51172,26.1250002 -3.85157,26.6562502 -9.29687,0.394531 -11.04296,-32.9531252 3.85157,-26.6562502 z m 0,0" />
</svg>
