<?xml version="1.0" encoding="UTF-8" standalone="no"?>
<svg
   width="803"
   height="806"
   version="1.1"
   id="svg635"
   xmlns="http://www.w3.org/2000/svg"
   xmlns:svg="http://www.w3.org/2000/svg">
  <defs
     id="defs639" />
  <path
     style="fill:#2d2d95;stroke:none"
     d="m 262.49338,191.31201 c 2.832,3.89 -3.34584,12.68674 -2.39484,17.47474 0.949,4.781 4.309,-0.86 0,0 -17.432,3.477 -25.02054,-1.47375 -34.94554,21.21325 -5.403,12.351 -2.90934,23.19628 5.99366,30.87828 2.826,2.439 9.56431,2.66374 9.27431,7.00274 -35.91611,4.16892 -9.55895,6.15551 -12.30295,9.39451 -11.122,13.13 -19.46991,24.91339 -36.92391,15.72539 -7.148,-3.763 -14.5941,-19.32149 -22.1001,-20.30049 -7.514,-0.979 -13.88201,13.23901 -19.98701,15.82701 -5.234,2.218 -16.44028,-3.89023 -21.97328,-4.45223 -2.232,14.034 -3.02248,38.74824 -10.08148,50.95024 -7.826,13.529 -27.403752,14.95686 -26.592852,33.52086 0.692,15.841 14.113252,28.45165 22.352252,39.90965 C 124.96364,425.35796 128.592,440.452 121.92,458 108.157,494.202 73.19215,524.27964 55.97605,558.64864 46.16635,578.23164 48.2013,592.159 58.6157,613 109.549,714.923 207.334,759.192 315,772.302 c 60.265,7.339 120.418,12.997 179,-8.019 24.536,-8.802 48.032,-23.041 70,-36.851 C 593.942,708.61 627.778,688.197 648.56,659 678.734,616.608 700.633,547.296 695.804,495 693.503,470.085 684,443 676,419 c -2.703,7.233 2.298,19.546 0.163,27 -2.117,7.389 -7.311,13.665 -9.792,21 -4.261,12.597 -6.033,26.071 -9.029,39 -2.153,9.293 -11.09787,18.98767 -21.10687,23.10767 -9.961,4.1 -13.38913,3.40633 -19.92713,-3.30467 C 599.577,508.63 594.59118,466.64502 578.31118,449.32702 571.23518,441.80002 559.971,468.335 551,465.643 531.524,459.8 507.02797,430.30684 485.35397,426.81284 c 6.29,11.439 22.11655,28.6781 27.79255,40.7921 12.422,26.509 -11.38987,46.82818 -36.63187,36.83618 -13.364,-5.29 -12.54959,-18.20852 -16.07759,-30.01852 -1.044,-3.491 -9.12006,-18.3366 -14.30606,-12.1646 -5.711,6.796 -26.25441,10.51844 -28.31241,18.90444 -5.888,23.996 7.69918,55.04305 8.87118,79.49005 1.317,27.475 -0.0338,55.66251 -6.03377,82.34751 -3.321,14.771 -19.59798,17.99586 -28.30298,30.71986 C 380.86902,690.50386 348.428,692.48 332.695,675 c -6.39,-7.099 0.968,8.767 0,0 -2.116,-19.173 12.92625,-57.23983 8.18525,-76.23083 C 327.39725,544.76217 266.17,527.912 259,473 h 20 c -24.264,-9.068 -57.204,5.711 -76,20 7.858,-13.826 22.49418,-25.08165 38.30818,-29.86365 8.267,-2.5 15.87341,0.0983 23.77341,-3.10772 9.016,-3.659 18.29767,-15.41078 27.32067,-19.63078 10.846,-5.074 27.56861,-3.13984 37.81061,-9.09584 5.02,-2.92 12.20566,-11.51311 11.70766,-17.25311 -0.278,-3.206 2.00074,-12.5248 3.63074,-15.4988 1.93,-3.524 7.04007,-1.85007 10.44107,-3.12007 5.293,-1.976 6.85695,-19.34338 9.76395,-24.07838 -31.633,0.901 -47.82208,-9.18307 -76.01908,6.67993 4.111,-7.94 -8.93121,2.12342 -3.73721,-5.03158 -34.78922,-2.6811 -52.74138,-4.35266 -63.19538,30.07534 -1.327,-6.038 -2.33862,-4.29334 -0.47762,-10.07534 11.246,-34.947 46.845,-31.111 69.61,-53.125 24.366,-23.562 20.656,-61.385 37.159,-88.875 15.237,-25.381 43.536,-32.337 69.904,-41 -0.598,-1.195 -0.466,-0.977 -2,-2 3.676,-2.086 15.422,-2.659 18,-6 -32.269,-11.78 -77.271,-15.676 -111,-14.059 -12.173,0.583 -29.60662,-0.029 -41.50662,3.37101 z"
     id="path383" />
  <path
     style="fill:#d87d87; stroke:none;"
     d="M567.667 20.3333C567.222 20.778 568.278 20.7221 568.333 20.6667C568.778 20.222 567.722 20.2778 567.667 20.3333z"
     id="path341" />
  <path
     style="fill:#2d2d95; stroke:none;"
     d="M557.667 21.3333C557.222 21.778 558.278 21.722 558.333 21.6667C558.778 21.222 557.722 21.2778 557.667 21.3333z"
     id="path345" />
  <path
     style="fill:#d87d87; stroke:none;"
     d="M592 21L593 22L592 21M549.667 22.3333C549.222 22.7778 550.278 22.7222 550.333 22.6667C550.778 22.2223 549.722 22.2776 549.667 22.3333z"
     id="path347" />
  <path
     style="fill:#2d2d95;stroke:none"
     d="m 388.51157,371.67268 c -6.401,11.119 -15.19465,29.6587 -20.95665,41.1227 -1.885,3.752 -12.06115,14.82163 -10.93815,19.36663 1.156,4.677 16.73223,5.48299 20.38323,8.14399 16.186,11.799 49.30419,13.94197 68.13519,13.94197 -5.153,-25.392 -34.63562,-70.90429 -56.62362,-82.57529 z"
     id="path583" />
  <path
     style="fill:#123928;stroke:none"
     d="m 635,319 c 0.506,16.582 3.79847,33.13039 -1.35553,49.90039 C 624.70547,397.98639 607.001,414.383 607,447 596.378,436.191 593.90432,419.54996 597.44032,404.55196 600.66732,390.86796 605.07,375.621 602.632,361 c -1.014,-6.085 -9.747,-26.882 -18.201,-24.438 -4.555,1.317 -8.754,11.486 -10.431,15.438 -2.167,-3.617 -4.577,-20.246 -9.287,-19.933 -5.704,0.379 -13.171,8.307 -17.713,11.5 -11.614,8.165 -25.94527,11.24857 -40.08527,14.07557 -11.93,2.385 -26.08873,-10.03581 -36.91473,-14.09181 -25.777,-9.658 -70.146,1.14024 -80.732,33.41824 -1.991,6.072 11.935,12.387 15.732,16.059 13.991,13.532 29.097,33.119 35,51.972 -16.54,0 -36.972,4.686 -53,-0.074 -6.67,-1.981 -17.628,-15.711 -23.804,-14.255 -9.629,2.269 -20.988,20.226 -30.196,25.863 -23.045,14.11 -44.06555,10.41377 -80.40794,16.13331 3.117,35.73 30.07094,57.37469 48.70594,86.33269 12.506,19.434 21.312,40.507 26.566,63 4.198,17.972 2.833,35.901 4.831,54 0.954,8.643 0.076,16.953 6.572,23.855 15.043,15.982 54.258,3.622 65.662,-11.883 9.118,-12.397 12.247,-28.261 15.503,-42.972 6.156,-27.814 12.881,-57.374 11.509,-86 -1.338,-27.905 -4.956,-72.363 14.19,-95.798 5.135,-6.285 8.663,10.27 9.718,13.798 3.279,10.975 4.414,28.79 16.155,34.482 27.826,13.491 65.236,-20.295 48.259,-48.482 -6.11,-10.144 -15.039,-17.772 -22.263,-27 20.699,4.973 33.001,23.387 52,29.692 9.489,3.149 21.041,-6.857 28.505,1.378 14.822,16.351 20.186,39.069 34.424,55.903 5.748,6.795 14.577,15.061 24.081,14.985 20.776,-0.166 22.189,-40.811 25.649,-55.958 2.961,-12.967 12.452,-25.338 14.114,-38 3.388,-25.814 -8.991,-47.111 -16.041,-71 C 655.505,355.288 649.714,331.77 635,319 Z"
     id="path497" />
  <path
     style="fill:#c31b29;stroke:none"
     d="m 434,170 c -4.867,-2.165 -12.104,-5.408 -14.85,-10.224 C 411.417,146.212 430.23,125.253 427.179,110 424.743,97.8204 411.339,82.6155 398,90 c 2.489,4.3916 6.675,8.9427 7.606,14 1.453,7.89 -9.714,23.635 -17.606,24.673 -5.464,0.718 -13.656,-4.705 -19,-6.233 -11.923,-3.411 -23.524,-5.944 -35,-10.88 -9.419,-4.051 -18.696,-10.686 -29,-12.2244 -23.906,-3.5684 -38.73,15.3134 -61,19.6644 10.161,12.821 34.603,-3.301 47,-1.615 10.43,1.419 19.186,11.945 27,18.075 7.74,6.073 14.965,7.917 24,11.043 4.455,1.542 11.963,5.809 13.509,10.612 2.214,6.878 -8.92184,22.56167 -9.04784,31.40467 23.258,3.084 45.82084,7.69533 68.53884,13.48033 -25.16,15.58 -59.686,14.997 -79.505,39.001 -22.943,27.787 -17.27,70.113 -42.62,96.971 -12.654,13.407 -30.459,15.926 -45.875,24.362 -18.373,10.054 -27.416,28.166 -28,48.666 6.202,-7.842 8.787,-17.638 16.118,-24.874 13.757,-13.58 33.649,-9.997 50.882,-13.126 -6.07,6.105 -13.046,12.751 -16,21 10.114,-4.039 18.002,-10.318 29,-12.452 18.544,-3.599 40.071,-0.557 59,-1.548 -18.872,21.217 -30.301,53.388 -55.99,67.485 -30.85,16.93 -65.511,-0.02 -90.108,31.515 -3.426,4.392 -6.82,8.813 -8.902,14 12.846,-7.282 24.191,-16.311 39.027,-19.346 31.654,-6.476 61.271,0.908 90.973,-16.53 20.461,-12.013 32.893,-30.527 42.765,-51.428 9.207,-19.494 18.021,-45.314 40.235,-53.977 32.71,-12.756 54.728,7.764 85.197,12.966 14.872,2.54 36.452,-13.775 47.803,-21.829 3.125,-2.217 13.226,-12.061 17.218,-9.754 4.322,2.496 5.46213,23.79196 7.40313,28.27296 3.514,-3.674 6.01987,-22.18196 10.80887,-24.05496 9.423,-3.685 18.432,22.247 18.532,28.68 0.395,25.489 -18.991,41.782 -4.827,68 2.464,4.561 6.46212,15.36712 11.02212,18.11212 C 609.17512,421.35912 630.235,399.237 639.225,372 645.09,354.233 638.682,336.527 635,319 c 6.319,6.051 9.998,21.665 17.45,25.283 9.071,4.403 25.015,-2.47 34.55,-3.168 26.559,-1.942 64.924,16.924 84,-9.115 -9.106,0 -17.712,0.528 -26,-3.936 -15.645,-8.425 -27.006,-25.457 -45,-29.489 -19.964,-4.473 -34.915,11.842 -54,12.425 9.389,-9.853 22.811,-15.98 33,-25.197 C 701.485,265.463 719.179,238.661 728.993,210 745.366,162.183 736.297,102.128 698.99,66.0596 633.65,2.88971 495.684,3.2005 447.443,87 431.222,115.178 433.58,139.245 434,170 Z"
     id="path349" />
  <path
     style="fill:#2d2d95; stroke:none;"
     d="M528 117L529 118L528 117z"
     id="path365" />
  <path
     style="fill:#d87d87; stroke:none;"
     d="M319 136C319.545 137.635 319.365 137.455 321 138C320.455 136.365 320.635 136.545 319 136z"
     id="path375" />
  <path
     style="fill:#2d2d95; stroke:none;"
     d="M603.667 136.333C603.222 136.778 604.278 136.722 604.333 136.667C604.778 136.222 603.722 136.278 603.667 136.333z"
     id="path377" />
  <path
     style="fill:#d87d87; stroke:none;"
     d="M333 186L336 187L333 186M274.667 188.333C274.222 188.778 275.278 188.722 275.333 188.667C275.778 188.222 274.722 188.278 274.667 188.333z"
     id="path385" />
  <path
     style="fill:#123928; stroke:none;"
     d="M52 376C50.063 373.957 48.4337 372.385 46 371C43.3579 389.304 35.8549 406.65 33.1403 425C24.8385 481.118 28.9608 541.131 51 594C61.4215 579.458 67.0051 559.765 75.8727 544C92.4037 514.61 112.391 487.263 123.331 455C127.273 443.374 131.962 430.451 130.875 418C128.811 394.374 95.6775 389.996 97.1294 368C98.1431 352.641 117.195 350.679 123.968 338.999C130.797 327.225 128.623 302.65 130 289C135.585 289.9 145.232 295.482 150.568 292.788C155.943 290.073 162.027 277.832 168.804 278.857C175.992 279.943 183.103 293.502 190 297.136C207.394 306.301 226.094 295.321 237.404 281.999C240.37 278.507 246.515 272.841 246.898 268.027C247.25 263.608 240.863 260.028 238 257.557C229.639 250.341 219.961 242.87 225.153 231C230.598 218.552 241.053 213.196 254 214.115C258.94 214.465 265.154 217.076 269.973 215.272C276.216 212.935 281.308 204.683 276.77 199C274.198 195.779 270.271 191.333 266 190.612C260.616 189.703 253.338 192.462 248 193.432C231.506 196.43 214.654 200.803 199 206.817C141.283 228.993 87.5476 279.056 62.3417 336C59.5996 342.195 61.7283 349.474 60.497 356C59.1418 363.183 54.8357 369.375 52 376z"
     id="path387" />
  <path
     style="fill:#d87d87; stroke:none;"
     d="M734.333 190.667C734.278 190.722 734.222 191.778 734.667 191.333C734.722 191.278 734.778 190.222 734.333 190.667M253 192L254 193L253 192M733.333 194.667C733.278 194.722 733.222 195.778 733.667 195.333C733.722 195.278 733.778 194.222 733.333 194.667M238 195L239 196L238 195M234 196L235 197L234 196M226 198L227 199L226 198M732.333 198.667C732.278 198.722 732.222 199.778 732.667 199.333C732.722 199.278 732.778 198.222 732.333 198.667M222 199L223 200L222 199M218 200L219 201L218 200z"
     id="path389" />
  <path
     style="fill:#123928;stroke:none"
     d="M 394.00242,210.50882 C 399.80642,211.75482 409.56,204.881 415,203 c -7.211,-5.204 -18.20567,2.2525 -20.99758,7.50882 z"
     id="path391" />
  <path
     style="fill:#d87d87; stroke:none;"
     d="M211 202L212 203L211 202M731 202L732 203L731 202M208 203L209 204L208 203M205 204L206 205L205 204z"
     id="path393" />
  <path
     style="fill:#d87d87; stroke:none;"
     d="M730 205L731 206L730 205M197 207L198 208L197 207z"
     id="path397" />
  <path
     style="fill:#123928;stroke:none"
     d="m 377,283 c -0.004,24.949 -25.325,23.137 -41,34 -7.88567,18.42459 -17.178,23.793 -21,36 10.10821,9.13087 16.08,-5.743 22.815,-3.822 4.803,1.369 3.05596,7.35168 6.64896,10.03068 C 348.60696,362.29768 358.842,358.84 363,357.288 397.955,344.24 402.6,299.4 413.353,269 417.451,257.414 424.64,247.339 429,236 c -20.69,5.135 -43.647,16.356 -61,28.595 -4.802,3.388 -24.684,20.736 -6.885,22.498 5.123,0.507 10.944,-2.988 15.885,-4.093 z"
     id="path403" />
  <path
     style="fill:#d87d87; stroke:none;"
     d="M714 241L715 242L714 241z"
     id="path409" />
  <path
     style="fill:#d87d87; stroke:none;"
     d="M709 249L710 250L709 249z"
     id="path421" />
  <path
     style="fill:#d87d87; stroke:none;"
     d="M703 258C701.814 259.186 701.472 259.584 701 261C702.548 259.738 702.808 259.806 703 258M700 262L697 266C698.669 264.611 699.404 264.023 700 262z"
     id="path429" />
  <path
     style="fill:#123928; stroke:none;"
     d="M440 323C454.368 322.998 468.621 319.107 483 320.115C496.692 321.074 510.368 327.443 524 323.192C545.121 316.607 561.108 287.615 565 267C536.935 263.336 509.123 271.34 483 281.19C470.537 285.89 458.172 290.475 449.267 301.003C444.094 307.12 442.44 315.539 440 323z"
     id="path433" />
  <path
     style="fill:#d87d87; stroke:none;"
     d="M695 268L691 273C693.032 271.408 694.239 270.442 695 268z"
     id="path437" />
  <path
     style="fill:#2d2d95;stroke:none"
     d="M 355.77173,277.06189 C 347.03673,290.10389 341.739,302.421 336,317 c 17.864,-8.427 45,-12.572 45,-36 -12.518,1.773 -6.35076,7.23474 -15.40376,-3.98626"
     id="path443" />
  <path
     style="fill:#d87d87; stroke:none;"
     d="M668 304L669 305L668 304M80 305L81 306L80 305M666 305L667 306L666 305M715 305L718 308L715 305M662.667 306.333C662.222 306.778 663.278 306.722 663.333 306.667C663.778 306.222 662.722 306.278 662.667 306.333z"
     id="path473" />
  <path
     style="fill:#d87d87; stroke:none;"
     d="M649 307L648 309C649.263 308.029 649.392 308.306 649 307M78 308L79 309L78 308M719 308C720.33 309.753 721.247 310.67 723 312C721.67 310.247 720.753 309.33 719 308z"
     id="path477" />
  <path
     style="fill:#d87d87; stroke:none;"
     d="M651.667 310.333C651.222 310.778 652.278 310.722 652.333 310.667C652.778 310.222 651.722 310.278 651.667 310.333z"
     id="path481" />
  <path
     style="fill:#2d2d95; stroke:none;"
     d="M443.333 311.667C443.278 311.722 443.222 312.778 443.667 312.333C443.722 312.278 443.778 311.222 443.333 311.667z"
     id="path483" />
  <path
     style="fill:#d87d87; stroke:none;"
     d="M724 312C725.33 313.753 726.247 314.67 728 316C726.67 314.247 725.753 313.33 724 312M75 313L76 314L75 313z"
     id="path485" />
  <path
     style="fill:#d87d87; stroke:none;"
     d="M73 316L74 317L73 316z"
     id="path489" />
  <path
     style="fill:#d87d87; stroke:none;"
     d="M730 317C731.33 318.753 732.247 319.67 734 321C732.67 319.247 731.753 318.33 730 317M72 318L73 319L72 318z"
     id="path493" />
  <path
     style="fill:#d87d87; stroke:none;"
     d="M735 321L738 324L735 321z"
     id="path501" />
  <path
     style="fill:#d87d87; stroke:none;"
     d="M69 323L70 324L69 323z"
     id="path505" />
  <path
     style="fill:#d87d87; stroke:none;"
     d="M745 328L746 329L745 328z"
     id="path517" />
  <path
     style="fill:#2d2d95; stroke:none;"
     d="M637 329L637 332C637.696 330.446 637.696 330.554 637 329z"
     id="path519" />
  <path
     style="fill:#2d2d95; stroke:none;"
     d="M588 337L589 338L588 337z"
     id="path523" />
  <path
     style="fill:#d87d87; stroke:none;"
     d="M60 338L61 339L60 338z"
     id="path525" />
  <path
     style="fill:#2d2d95;stroke:none"
     d="m 315,353 c -1.419,2.999 -1.30239,5.55771 5.95971,5.93785 11.986,-0.341 14.04529,1.13115 26.04029,1.06215 -2.656,-21.755 -18.352,-8.383 -32,-7 z"
     id="path543" />
  <path
     style="fill:#2d2d95;stroke:none"
     d="m 589,338 1,1 -1,-1 m -529,1 c -6.1559,10.16 -10.313,20.728 -14,32 l 6,5 c 6.1861,-10.6 16.502311,-29.42444 11.840111,-41.89944 M 590,339 l 1,1 z"
     id="path527" />
  <path
     style="fill:#2d2d95; stroke:none;"
     d="M591 340L592 341L591 340z"
     id="path531" />
  <path
     style="fill:#d87d87; stroke:none;"
     d="M55 346L56 347L55 346M748 346L749 347L748 346z"
     id="path537" />
  <path
     style="fill:#2d2d95; stroke:none;"
     d="M735 347L736 348L735 347z"
     id="path539" />
  <path
     style="fill:#d87d87; stroke:none;"
     d="M54 348L55 349L54 348z"
     id="path541" />
  <path
     style="fill:#2d2d95; stroke:none;"
     d="M415.667 351.333C415.222 351.778 416.278 351.722 416.333 351.667C416.778 351.222 415.722 351.278 415.667 351.333z"
     id="path551" />
  <path
     style="fill:#d87d87; stroke:none;"
     d="M654 351L655 352L654 351z"
     id="path553" />
  <path
     style="fill:#d87d87; stroke:none;"
     d="M655 353L656 354L655 353z"
     id="path557" />
  <path
     style="fill:#d87d87; stroke:none;"
     d="M51 355L52 356L51 355z"
     id="path561" />
  <path
     style="fill:#2d2d95; stroke:none;"
     d="M476 355L479 356L476 355z"
     id="path563" />
  <path
     style="fill:#d87d87; stroke:none;"
     d="M656 355L657 356L656 355z"
     id="path565" />
  <path
     style="fill:#2d2d95; stroke:none;"
     d="M362.667 357.333C362.222 357.778 363.278 357.722 363.333 357.667C363.778 357.222 362.722 357.278 362.667 357.333z"
     id="path567" />
  <path
     style="fill:#d87d87; stroke:none;"
     d="M50 358L51 359L50 358z"
     id="path569" />
  <path
     style="fill:#2d2d95; stroke:none;"
     d="M359 358L362 359L359 358M483 358L486 359L483 358z"
     id="path571" />
  <path
     style="fill:#d87d87; stroke:none;"
     d="M657 358L658 359L657 358z"
     id="path573" />
  <path
     style="fill:#d87d87; stroke:none;"
     d="M658 363L659 364L658 363M47 366L48 367L47 366z"
     id="path577" />
  <path
     style="fill:#2d2d95; stroke:none;"
     d="M640.333 367.667C640.278 367.722 640.222 368.778 640.667 368.333C640.722 368.278 640.778 367.222 640.333 367.667z"
     id="path579" />
  <path
     style="fill:#d87d87; stroke:none;"
     d="M659 368L660 369L659 368M46 369L47 370L46 369M660 372L661 373L660 372M45 374L46 375L45 374M44 378L45 379L44 378z"
     id="path581" />
  <path
     style="fill:#d87d87; stroke:none;"
     d="M43 382L44 383L43 382M664 384L665 385L664 384M42 386L43 387L42 386M665 387L666 388L665 387z"
     id="path585" />
  <path
     style="fill:#d87d87; stroke:none;"
     d="M667 392L668 393L667 392M40 393L41 394L40 393M39 397L40 398L39 397M669 397L670 398L669 397M670 400L671 401L670 400z"
     id="path589" />
  <path
     style="fill:#2d2d95; stroke:none;"
     d="M38 401L39 402L38 401z"
     id="path591" />
  <path
     style="fill:#d87d87; stroke:none;"
     d="M672 405L673 406L672 405M673 408L674 409L673 408M674 412L675 413L674 412M675 415L676 416L675 415M34 417L35 418L34 417M676 419L677 420L676 419M33 422L34 423L33 422M677 422L678 423L677 422M678 425L679 426L678 425z"
     id="path593" />
  <path
     style="fill:#123928;stroke:none"
     d="M 263.93239,456.9163 C 293.03108,458.89975 315.899,443.656 325,427 c -22.516,2.285 -43.58461,16.6183 -61.06761,29.9163 z"
     id="path595" />
  <path
     style="fill:#d87d87; stroke:none;"
     d="M32.3333 428.667C32.2778 428.722 32.2222 429.778 32.6667 429.333C32.7223 429.278 32.7778 428.222 32.3333 428.667M679 428L680 429L679 428M680 432L681 433L680 432M681 435L682 436L681 435z"
     id="path597" />
  <path
     style="fill:#2d2d95; stroke:none;"
     d="M317 436L318 437L317 436z"
     id="path599" />
  <path
     style="fill:#d87d87; stroke:none;"
     d="M31.3333 438.667C31.2779 438.722 31.2222 439.778 31.6667 439.333C31.7223 439.278 31.7777 438.222 31.3333 438.667M683 442L684 443L683 442M30.3333 446.667C30.2778 446.722 30.2222 447.778 30.6667 447.333C30.7223 447.278 30.7777 446.222 30.3333 446.667z"
     id="path601" />
  <path
     style="fill:#d87d87; stroke:none;"
     d="M684 446L685 447L684 446M685 449L686 450L685 449z"
     id="path605" />
  <path
     style="fill:#2d2d95; stroke:none;"
     d="M293 451L296 452L293 451M290 452L293 453L290 452M287 453L290 454L287 453z"
     id="path607" />
  <path
     style="fill:#2d2d95; stroke:none;"
     d="M324.667 461.333C324.222 461.778 325.278 461.722 325.333 461.667C325.778 461.222 324.722 461.278 324.667 461.333M317 464L320 465L317 464M314 465L317 466L314 465M312.667 466.333C312.222 466.778 313.278 466.722 313.333 466.667C313.778 466.222 312.722 466.278 312.667 466.333z"
     id="path611" />
  <path
     style="fill:#d87d87; stroke:none;"
     d="M690 466L691 467L690 466z"
     id="path613" />
  <path
     style="fill:#d87d87; stroke:none;"
     d="M691 469L692 470L691 469z"
     id="path617" />
  <path
     style="fill:#d87d87; stroke:none;"
     d="M694.333 483.667C694.278 483.722 694.222 484.778 694.667 484.333C694.722 484.278 694.778 483.222 694.333 483.667M695.333 491.667C695.278 491.722 695.222 492.778 695.667 492.333C695.722 492.278 695.778 491.222 695.333 491.667z"
     id="path621" />
  <path
     style="fill:#2d2d95; stroke:none;"
     d="M37 549L38 550L37 549z"
     id="path627" />
  <path
     style="fill:#d87d87; stroke:none;"
     d="M420.667 779.333C420.222 779.778 421.278 779.722 421.333 779.667C421.778 779.222 420.722 779.278 420.667 779.333M387.667 780.333C387.222 780.778 388.278 780.722 388.333 780.667C388.778 780.222 387.722 780.278 387.667 780.333M413 780L416 781L413 780z"
     id="path633" />
  <path
     style="fill:#000000;stroke:none"
     d="M599 137C607.696 136.224 616.405 131.298 625 131.431C634.378 131.577 643.64 137.645 653 139C637.342 120.955 612.793 113.913 599 137z"
     id="path369" />
  <path
     style="fill:#000000;stroke:none"
     d="M482 116C490.613 122.92 499.765 115.777 509 115.342C516.144 115.006 522.927 119.282 530 120C518.533 97.3978 499.826 113.419 482 116z"
     id="path361" />
</svg>
